<?xml version="1.0" encoding="UTF-8"?> <svg xmlns="http://www.w3.org/2000/svg" id="Pfad_EN" data-name="Pfad EN" version="1.1" viewBox="0 0 183.24 184.13"><defs><style> .cls-1 { fill: #fff; stroke-width: 0px; } </style></defs><path class="cls-1" d="M31.71,36.06c.97.82,1.83,1.65,2.57,2.5s1.31,1.69,1.69,2.53c.38.83.55,1.64.51,2.43s-.36,1.53-.95,2.23l-2.55,3.02.12-1.84-12.69-10.71-1.81.41,2.73-3.23c.4-.47.86-.79,1.4-.96.54-.17,1.11-.22,1.72-.16.61.07,1.25.23,1.9.48s1.29.56,1.92.91,1.24.74,1.82,1.16,1.12.83,1.6,1.24h.02ZM21.64,34.74l12.67,10.69.49-.58c.28-.33.45-.67.51-1.04.06-.36-.06-.81-.35-1.34s-.81-1.17-1.55-1.93c-.73-.75-1.77-1.69-3.09-2.81-1.41-1.19-2.59-2.11-3.52-2.75s-1.7-1.07-2.3-1.3c-.6-.23-1.08-.29-1.42-.19-.34.1-.63.3-.88.58l-.56.66h0Z"></path><path class="cls-1" d="M42.77,36.71l1.83-.19-3.61,3.27.35-1.83-11.14-12.31-1.83.19,3.61-3.27-.35,1.83,11.14,12.31Z"></path><path class="cls-1" d="M50.05,26.37c.34.49.63,1.03.87,1.61.24.59.39,1.16.44,1.71.06.55,0,1.08-.17,1.57-.17.5-.48.9-.94,1.23-.26.18-.57.28-.92.3s-.7,0-1.03-.1c-.05,0-.11-.03-.17-.05-.06-.02-.13-.05-.19-.07l-.27-.09c-.03.11-.05.26-.06.44v.53c.02.22.04.43.05.65l-.22.16-4.29-6.12.25-.18c.29.19.58.39.87.61s.56.43.82.64c.62.5,1.16.93,1.6,1.29.45.36.84.64,1.19.84s.66.31.94.34c.28.02.55-.06.83-.26.24-.17.39-.39.43-.66s.02-.55-.07-.86c-.09-.3-.22-.61-.39-.92s-.36-.61-.55-.88c-.4-.57-.77-1.01-1.12-1.33s-.7-.57-1.05-.75-.72-.3-1.09-.36-.79-.11-1.24-.14c-.61-.03-1.18-.1-1.7-.21-.52-.11-1.01-.28-1.47-.51s-.89-.52-1.29-.89-.79-.82-1.17-1.35c-.3-.43-.56-.9-.79-1.43-.23-.52-.39-1.04-.47-1.55-.08-.51-.07-.99.03-1.44.11-.45.36-.82.76-1.09.31-.21.6-.33.89-.33s.59.04.89.15c.08.01.17.04.28.08.11.04.2.03.27-.02.03-.02.05-.09.07-.22.02-.12.03-.26.04-.41v-.58l.22-.08,3.97,5.67-.18.13c-.18-.1-.42-.25-.72-.47-.3-.21-.61-.45-.94-.71s-.66-.53-.98-.82c-.33-.29-.62-.55-.88-.8-.43-.38-.82-.65-1.19-.79-.36-.14-.67-.12-.93.06-.21.15-.33.35-.36.59-.02.24,0,.5.1.78s.22.56.39.85.34.56.51.8c.3.43.6.78.89,1.05.29.27.61.48.95.63s.72.25,1.12.31c.41.06.87.09,1.41.11,1.31.04,2.41.35,3.31.91s1.72,1.39,2.47,2.46l-.02-.03Z"></path><path class="cls-1" d="M55.94,15.5c-.45-.42-.91-.93-1.39-1.53-.48-.59-.95-1.15-1.4-1.68s-.88-.94-1.28-1.26c-.4-.32-.74-.41-1-.28-.22.11-.35.33-.39.65s.03.81.22,1.46c.19.65.52,1.49.98,2.52.46,1.03,1.08,2.31,1.84,3.82.81,1.6,1.49,2.88,2.05,3.86s1.03,1.71,1.42,2.21.73.81,1.01.92.55.1.8-.03c.25-.13.43-.34.54-.64s.14-.7.09-1.21c-.05-.51-.19-1.11-.44-1.82-.24-.7-.6-1.53-1.08-2.48l-.44-.87.93-.16.58,1.15c.45.88.81,1.7,1.08,2.45s.44,1.44.51,2.05,0,1.14-.19,1.59-.53.79-1.01,1.03c-.98.5-2.14.21-3.48-.86s-2.7-2.97-4.08-5.7c-.57-1.13-1.07-2.28-1.48-3.45-.42-1.17-.71-2.26-.89-3.27s-.21-1.88-.1-2.6.4-1.21.87-1.45c.6-.3,1.2-.3,1.79,0,.08.02.17.07.28.14s.21.08.29.04c.03-.02.06-.08.07-.19.02-.11.03-.24.04-.39l.02-.58.27-.08,3.28,6.47-.3.15v.02Z"></path><path class="cls-1" d="M68.73,23.4c-.57.19-1.16.09-1.78-.31-.62-.39-1.23-.98-1.82-1.75-.59-.78-1.16-1.69-1.69-2.74-.54-1.05-1-2.15-1.38-3.3-.4-1.21-.7-2.39-.9-3.57-.2-1.17-.29-2.24-.26-3.22.03-.97.18-1.79.45-2.45s.67-1.08,1.21-1.26c.53-.18,1.1-.1,1.72.24.61.34,1.22.87,1.83,1.6s1.19,1.63,1.74,2.7c.55,1.07,1.04,2.25,1.47,3.54.39,1.17.68,2.34.89,3.51.2,1.17.29,2.25.26,3.22s-.18,1.8-.46,2.48-.7,1.12-1.26,1.3h-.02ZM67.21,13.58c-.95-2.85-1.79-4.87-2.53-6.05-.74-1.18-1.32-1.7-1.74-1.56-.39.13-.52.9-.38,2.31.13,1.41.67,3.52,1.6,6.31.47,1.42.92,2.62,1.35,3.62s.82,1.81,1.18,2.43.67,1.06.96,1.32c.28.26.52.36.72.29.21-.07.36-.29.44-.66.08-.37.08-.91,0-1.62-.08-.71-.25-1.59-.5-2.65s-.62-2.3-1.09-3.74h-.01Z"></path><path class="cls-1" d="M73.52,3.37l-1.5-.86,4.31-.71-1.02,1.22,3.77,12.41h.03l-.22-12.91-1.42-.9,3.87-.63-1.2,1.3.43,16.95,1.31.72-4.37.72.98-1.13-4.95-16.18h-.02Z"></path><path class="cls-1" d="M90.01,10.23l.13,8.04,2.94-.05c.02-.21.07-.51.15-.91.09-.4.2-.85.34-1.35s.32-1.02.55-1.58c.22-.55.49-1.08.8-1.57h.06l.1,6.47-8.31.13,1.47-1.14-.27-16.6-1.5-1.07,7.81-.13.1,6.21h-.06c-.12-.15-.26-.41-.45-.78-.18-.37-.36-.8-.54-1.28-.18-.48-.34-.99-.49-1.52s-.25-1.04-.29-1.52l-2.69.04.12,7.42,1.46-.02c.03-.21.09-.44.16-.7.07-.26.15-.53.25-.8.1-.27.21-.52.32-.75.12-.23.23-.41.34-.57h.11l.11,7.08h-.11c-.11-.11-.23-.29-.36-.55s-.24-.54-.35-.85-.2-.61-.28-.92-.14-.56-.18-.77l-1.46.02.02.02Z"></path><path class="cls-1" d="M104.99,13.62c.04-.54.05-.99,0-1.34-.04-.36-.12-.64-.22-.84-.11-.21-.26-.36-.44-.45s-.39-.16-.61-.19l-.47-.07-1.27,8.25,1.3,1.3-4.82-.74,1.64-.88,2.52-16.39-1.3-1.33,3.43.53c.77.12,1.42.35,1.94.68.51.33.92.74,1.2,1.22.29.48.47,1.01.54,1.61s.07,1.23-.04,1.89c-.18,1.16-.56,2.02-1.15,2.58s-1.28.89-2.09.99v.08c.47.28.84.78,1.1,1.5s.37,1.6.34,2.66c-.03.41-.05.91-.09,1.5s-.07,1.1-.09,1.53c-.09.95-.07,1.65.06,2.12s.31.81.54,1.03l-2.24-.34c-.13-.48-.22-1-.27-1.55s-.02-1.18.09-1.88c.05-.33.09-.64.13-.92s.06-.55.08-.82.05-.54.08-.82.06-.58.09-.89l.02-.02ZM104.51,2.53l-1.07,6.97.53.08c.42.07.78.06,1.05-.02s.51-.24.7-.49c.19-.24.34-.58.47-1.02.12-.43.23-.97.33-1.62.17-1.12.2-2.01.07-2.65s-.57-1.02-1.33-1.14c0,0-.75-.11-.75-.11Z"></path><path class="cls-1" d="M125.1,18.47l.05.02,3.81-8.88-.68-1.48,3.53,1.51-1.67.47-7.02,16.36-1-.43,2.46-15.61-.05-.02-5.58,12.99.92,1.62-3.89-1.67,1.81-.44,6.55-15.26-.92-1.61,3.34,1.44-1.67,10.98h0Z"></path><path class="cls-1" d="M130.12,30.79c-.51-.32-.8-.84-.89-1.57s-.03-1.57.2-2.52c.22-.95.57-1.97,1.04-3.05s1.03-2.13,1.68-3.16c.68-1.07,1.4-2.06,2.18-2.96s1.55-1.65,2.32-2.24,1.5-1,2.18-1.21,1.26-.17,1.74.13c.47.3.78.79.9,1.48.13.69.1,1.5-.08,2.43s-.51,1.95-.98,3.05-1.08,2.23-1.8,3.38c-.66,1.04-1.37,2.01-2.15,2.91s-1.55,1.65-2.32,2.24-1.51,1-2.21,1.22c-.7.22-1.31.17-1.81-.15v.02ZM136.74,23.38c1.6-2.54,2.63-4.47,3.07-5.79.45-1.32.48-2.1.1-2.34-.35-.22-1.02.17-2.03,1.17s-2.29,2.75-3.87,5.24c-.8,1.26-1.45,2.38-1.94,3.34s-.88,1.78-1.13,2.45c-.26.67-.39,1.19-.42,1.58-.02.38.05.63.23.74.19.12.45.09.79-.08s.76-.51,1.26-1.03,1.08-1.2,1.73-2.07,1.39-1.94,2.19-3.22h.02Z"></path><path class="cls-1" d="M155.76,26.68l-1.77-.16-7.69,10.55.08.08,10.07-8.22-.04-1.64,2.91,2.71-2-.11-13.08,10.58.29,1.5-3.09-2.88,1.47.19,6.73-9.35-.1-.09-8.82,7.36.27,1.48-2.89-2.69,1.29.05,9.58-13.85-.15-1.98,3.36,3.13-1.71-.1-7.29,10.32.06.06,9.58-8.02-.2-1.84,3.13,2.92h.01Z"></path><path class="cls-1" d="M150.66,45.11l1.05,1.35-2.14,1.67-1.05-1.35,2.14-1.67ZM163.37,35.18l1.1,1.41-4.88,3.8-7.1,4.6-.21-.27,6.2-5.75,4.88-3.8h.01Z"></path></svg> 