<?xml version="1.0" encoding="UTF-8"?> <svg xmlns="http://www.w3.org/2000/svg" id="Pfad_EN" data-name="Pfad EN" version="1.1" viewBox="0 0 364.3 560.1"><defs><style> .cls-1 { fill: #282828; stroke-width: 0px; } </style></defs><path class="cls-1" d="M78.1,40.5l-2.2,1.8c.6.7,1.1,1.4,1.6,2.1.5.7,1,1.4,1.5,2.2.5.8.9,1.7,1.4,2.8.4,1,.9,2.3,1.3,3.7l-.3.2-9-11.1,11.5-9.3,9,11.1-.3.2c-1.3-.7-2.4-1.4-3.3-2-.9-.6-1.7-1.2-2.5-1.9-.7-.6-1.4-1.2-1.9-1.9-.6-.6-1.2-1.3-1.8-2.1l-2.2,1.8,20.9,25.8,3.7-.2-7.6,6.1.9-3.6-20.9-25.8Z"></path><path class="cls-1" d="M98.9,25.7l-3.2-.7,7.2-4.2-.7,3,21.1,26.2,3.7.4-8.6,5.1,1.5-3.5-5-6.7c-.2.3-.5.6-.8.9-.3.3-.7.6-1.1.8-.4.2-.7.4-1,.4s-.7.2-1.2.2l3.3,7.8,3.5.6-7.6,4.5,1.5-3.5-12.4-31.2ZM103.9,31.4h0c0,0,5.9,13.7,5.9,13.7.6,0,1.2-.2,1.8-.6.4-.2.6-.4.8-.6.2-.2.4-.5.7-.7l-9.1-11.7Z"></path><path class="cls-1" d="M139,34.9c.4,1.1.8,2.3,1,3.5s.2,2.4,0,3.5c-.1,1.1-.5,2.1-1,3-.6.9-1.4,1.5-2.4,2-.6.2-1.2.3-1.9.2-.7-.1-1.4-.3-2-.7,0,0-.2,0-.3-.2-.1,0-.2-.2-.3-.2l-.5-.3c-.1.2-.2.5-.3.8,0,.3-.2.7-.2,1,0,.4-.1.9-.2,1.3l-.5.2-5.6-13.9.6-.2c.5.5,1,1,1.4,1.6.5.6.9,1.1,1.3,1.6,1,1.3,1.8,2.3,2.5,3.2.7.9,1.4,1.6,1.9,2.2s1.1.9,1.7,1.1c.5.2,1.1.1,1.7-.1.6-.2.9-.6,1.1-1.1.2-.5.3-1.1.3-1.7,0-.6-.1-1.3-.3-2-.2-.7-.4-1.3-.7-2-.5-1.3-1-2.3-1.6-3.1-.5-.8-1.1-1.4-1.7-1.9-.6-.5-1.3-.9-2-1.2-.7-.3-1.5-.6-2.4-.8-1.2-.3-2.3-.7-3.2-1.2s-1.8-1-2.6-1.7c-.8-.6-1.5-1.4-2.1-2.3-.6-.9-1.2-1.9-1.7-3.2-.4-1-.7-2-.9-3.1-.2-1.1-.3-2.2-.2-3.2,0-1,.3-2,.7-2.8.4-.8,1.1-1.4,2-1.8.7-.3,1.3-.4,1.9-.2.6.1,1.1.3,1.7.7.1,0,.3.2.5.3.2.1.4.2.5,0,0,0,.1-.2.2-.4,0-.2.2-.5.3-.8,0-.3.2-.7.3-1.1h.5c0,0,5.2,12.8,5.2,12.8l-.4.2c-.3-.3-.7-.7-1.2-1.2-.5-.5-1-1.2-1.5-1.8-.5-.7-1-1.3-1.5-2-.5-.7-1-1.4-1.4-2-.7-.9-1.3-1.6-2-2.1-.6-.4-1.3-.5-1.8-.3-.5.2-.8.5-1,1-.2.5-.2,1-.2,1.6,0,.6.2,1.2.4,1.8.2.6.4,1.2.6,1.8.4,1,.8,1.8,1.3,2.5.4.7,1,1.2,1.6,1.7.6.4,1.3.8,2,1.1.8.3,1.7.6,2.7.8,2.5.7,4.5,1.8,6,3.3,1.5,1.5,2.7,3.5,3.7,5.9Z"></path><path class="cls-1" d="M143.4,7.1l-2.8.7c.2.9.4,1.8.6,2.6.2.8.3,1.7.4,2.6,0,.9.1,1.9,0,3.1,0,1.1-.2,2.4-.4,3.9h-.4c0,0-3.3-13.7-3.3-13.7l14.4-3.5,3.3,13.8h-.3c-.9-1.1-1.6-2.2-2.1-3.1-.6-1-1-1.9-1.4-2.7-.4-.9-.7-1.7-.9-2.5-.2-.8-.5-1.7-.7-2.7l-2.7.7,7.8,32.3,3.4,1.4-9.5,2.3,2.4-2.9-7.7-32.3Z"></path><path class="cls-1" d="M163.8,3.8l-3.3-2.5,9.9-.8-3.1,2.5,5,15.4h.2s1.6-16,1.6-16l-3-2,8-.6-2.6,2.4-2.7,20.7,1,12.7,3.2,1.9-9.7.7,2.8-2.5-1-13-6.3-19.1Z"></path><path class="cls-1" d="M210.3,24.4h.1s3.4-19,3.4-19l-2-2.6,7.5,1.4-3,1.7-6.3,35.1-2.1-.4-2.2-31.5h-.1s-5,27.8-5,27.8l2.5,2.7-8.3-1.5,3.3-1.7,5.9-32.7-2.5-2.7,7.2,1.3,1.7,22.2Z"></path><path class="cls-1" d="M227.5,26.9l-5.4,15.1,5.5,2c.2-.4.5-.9.9-1.6.4-.7,1-1.5,1.6-2.3.6-.8,1.3-1.7,2.1-2.6.8-.9,1.7-1.7,2.6-2.4h.1s-4.3,12.2-4.3,12.2l-15.7-5.6,3.5-1.1,11.1-31.3-2.1-3.1,14.7,5.2-4.2,11.7h-.1c-.1-.4-.2-1-.3-1.8,0-.8-.1-1.7-.1-2.8,0-1,0-2.1.2-3.2,0-1.1.3-2.1.5-3.1l-5.1-1.8-5,14,2.7,1c.2-.4.5-.8.8-1.2.3-.4.7-.9,1-1.3.4-.4.8-.8,1.1-1.2.4-.3.7-.6,1-.8h.2c0,0-4.8,13.4-4.8,13.4h-.2c-.1-.4-.2-.8-.3-1.4,0-.6,0-1.2,0-1.8,0-.6,0-1.3.1-1.9,0-.6.1-1.2.2-1.6l-2.7-1Z"></path><path class="cls-1" d="M269.5,25.5l-3.5.4-10.5,23.9h.2c0,.1,16.2-20.2,16.2-20.2l-.8-3.2,6.8,4.1-4,.6-21.1,26.2,1.2,2.8-7.3-4.3,3-.3,9.2-21.1h-.2c0-.1-14.1,18-14.1,18l1.2,2.8-6.8-4,2.5-.4,12.8-31.1-1.1-3.8,7.9,4.7-3.4.5-9.9,23.3h.1c0,0,15.3-19.7,15.3-19.7l-1.2-3.5,7.4,4.4Z"></path><path class="cls-1" d="M277.4,66.7c-.8.9-1.7,1.7-2.7,2.5-1,.8-2,1.3-3.1,1.7-1,.4-2.1.5-3.1.4-1,0-2-.5-2.8-1.2-.5-.4-.8-1-1-1.6-.2-.7-.3-1.4-.3-2,0-.1,0-.2,0-.4,0-.1,0-.3,0-.4v-.6c-.2,0-.5,0-.8,0s-.7.2-1,.3c-.4.1-.8.3-1.2.4l-.4-.4,9.7-11.3.5.4c-.2.7-.5,1.3-.7,2s-.6,1.3-.8,1.9c-.7,1.5-1.2,2.7-1.7,3.7-.5,1-.8,1.9-1,2.7-.2.8-.3,1.4-.2,2,0,.5.4,1,.9,1.5.5.4.9.6,1.5.5.5,0,1.1-.2,1.6-.6.5-.3,1.1-.7,1.6-1.2.5-.5,1-1,1.4-1.5.9-1,1.6-2,2-2.8.5-.8.8-1.6.9-2.4.2-.8.2-1.5.2-2.3,0-.8-.2-1.6-.3-2.5-.2-1.2-.4-2.3-.4-3.4,0-1.1,0-2.1.3-3.1.2-1,.6-2,1.1-2.9.5-1,1.2-1.9,2-2.9.7-.8,1.5-1.5,2.4-2.2.9-.7,1.8-1.3,2.8-1.7.9-.4,1.9-.6,2.8-.6.9,0,1.8.3,2.5.9.6.5.9,1,1.1,1.6.2.6.2,1.2.2,1.8,0,.2,0,.4,0,.6,0,.2,0,.4.2.5,0,0,.2,0,.5,0s.5,0,.8-.1c.3,0,.7-.2,1.1-.3l.3.4-9,10.5-.3-.3c.1-.4.3-.9.6-1.6.3-.7.6-1.4.9-2.2.3-.8.7-1.5,1.1-2.3.4-.8.8-1.5,1.1-2.1.5-1,.8-1.9.9-2.7,0-.8,0-1.4-.6-1.8-.4-.3-.8-.5-1.3-.4-.5,0-1,.3-1.5.6-.5.3-1,.7-1.5,1.2s-.9.9-1.3,1.4c-.7.8-1.2,1.5-1.6,2.2s-.6,1.4-.8,2.2c-.1.7-.1,1.5,0,2.3,0,.8.3,1.7.5,2.8.6,2.6.5,4.8-.1,6.9-.7,2-1.8,4-3.5,6Z"></path></svg> 