<?xml version="1.0" encoding="UTF-8"?> <svg xmlns="http://www.w3.org/2000/svg" id="geschlossene_Schrift" data-name="geschlossene Schrift" viewBox="0 0 197.43 198.39"><defs><style> .cls-1 { fill: #282828; } .cls-2 { fill: none; stroke: #282828; stroke-miterlimit: 10; } </style></defs><circle class="cls-2" cx="98.71" cy="99.22" r="98.06"></circle><g><path class="cls-1" d="m39.7,142.56c-.2.71-.58,1.46-1.16,2.25-.57.79-1.29,1.59-2.14,2.41-.85.81-1.78,1.57-2.77,2.27-1.04.73-2.09,1.36-3.16,1.89-1.06.53-2.07.92-3.01,1.17s-1.77.34-2.48.27c-.71-.07-1.23-.34-1.55-.79-.32-.46-.41-1.03-.26-1.71s.48-1.42,1.01-2.21,1.22-1.61,2.09-2.44c.86-.83,1.85-1.64,2.97-2.42,1.01-.71,2.04-1.33,3.11-1.86,1.07-.53,2.07-.92,3.01-1.17.94-.25,1.78-.34,2.51-.27.73.07,1.27.35,1.61.84.34.49.42,1.09.22,1.8Zm-14.26,6.63c-.92,1.04-1.25,1.75-1,2.12.24.34,1.01.24,2.32-.3,1.31-.53,3.18-1.65,5.59-3.34,1.22-.86,2.25-1.64,3.08-2.33.83-.7,1.5-1.31,1.99-1.82s.82-.95.99-1.29c.17-.34.19-.6.08-.77-.13-.18-.38-.26-.76-.23s-.9.18-1.56.46c-.66.28-1.46.69-2.4,1.24-.94.54-2.03,1.25-3.27,2.12-2.46,1.73-4.15,3.11-5.07,4.16Z"></path><path class="cls-1" d="m25.95,134.44l-.03-.05-8.6,4.4-.42,1.57-1.75-3.42,1.58.7,15.85-8.12.5.97-11.86,10.45.03.05,12.59-6.45.32-1.83,1.93,3.76-1.67-.81-14.78,7.57-.32,1.83-1.66-3.24,8.29-7.39Z"></path><path class="cls-1" d="m28.28,121.59c-.2.05-.52.1-.96.15-.44.05-.93.09-1.47.11-.54.02-1.13.02-1.75-.01-.62-.03-1.22-.1-1.79-.22l-.02-.05,6.43-2.24,2.73,7.85-1.52-1.04-15.68,5.46-.57,1.77-1.6-4.6,1.52,1.04,15.66-5.45-.97-2.78Z"></path><path class="cls-1" d="m10.89,119.89l-1.05,1.78-.96-4.86,1.45,1.4,7.35-3.4-.02-.11-8.02.16-.83,1.59-.78-3.96,1.34,1.16,10.44.13,6.26-1.24.8-1.7.95,4.78-1.37-1.27-6.43,1.27-9.15,4.27Z"></path><path class="cls-1" d="m8.28,98.67l-.02,1.43c.47,0,.91.02,1.34.05.43.03.87.08,1.33.15.46.07.95.19,1.49.36.54.17,1.15.4,1.84.69v.2s-7.11-.12-7.11-.12l.12-7.42,7.11.12v.17c-.68.27-1.28.48-1.82.63-.54.15-1.04.26-1.5.34-.47.08-.92.12-1.35.13s-.89.01-1.37,0l-.02,1.4,16.6.27,1.14-1.47-.08,4.87-1.07-1.53-16.63-.27Z"></path><path class="cls-1" d="m9.63,83.67l-1.31,1.13.72-4.62.88,1.64,16.38,2.56,1.33-1.29-.72,4.62-.9-1.47-8.22-1.28c.08.22.13.46.14.73.01.27,0,.54-.04.81-.05.3-.11.55-.19.75-.08.21-.2.43-.37.67l8.22,1.29,1.31-1.1-.72,4.62-.85-1.63-16.41-2.57-1.33,1.29.72-4.62.88,1.44,6.83,1.07c.12-.17.23-.37.33-.6s.18-.5.23-.82c.05-.31.06-.58.04-.8-.02-.22-.07-.47-.14-.74l-6.81-1.07Z"></path><path class="cls-1" d="m20.23,75.96l7.67,2.39.87-2.81c-.19-.08-.46-.22-.82-.43-.36-.21-.75-.46-1.17-.75-.43-.29-.87-.63-1.33-1.01-.46-.39-.87-.8-1.24-1.25l.02-.05,6.18,1.92-2.47,7.94-.6-1.74-15.85-4.94-1.51,1.08,2.32-7.46,5.94,1.85-.02.05c-.18.06-.47.12-.88.18-.41.06-.87.1-1.38.11-.51.02-1.04.01-1.59-.01-.55-.02-1.06-.09-1.54-.2l-.8,2.57,7.08,2.21.43-1.39c-.18-.1-.39-.22-.62-.37-.23-.15-.45-.31-.68-.49-.23-.18-.43-.36-.61-.54s-.32-.35-.43-.5l.03-.11,6.76,2.11-.03.11c-.14.07-.35.13-.64.17-.29.04-.59.06-.92.07-.32,0-.64,0-.96-.02s-.58-.04-.79-.07l-.43,1.39Z"></path><path class="cls-1" d="m34.86,58.19c.46.48.8,1,1.02,1.54.21.54.3,1.1.26,1.67-.04.57-.22,1.14-.55,1.71l-2.23,3.88-.21-1.83-14.39-8.28-1.71.73,2.12-3.69c.33-.57.73-1,1.21-1.29s1-.47,1.55-.53,1.12-.02,1.7.12c.58.14,1.14.36,1.65.66.81.46,1.4,1.03,1.79,1.69.38.66.51,1.48.38,2.46l.05.03c.36-.37.77-.64,1.22-.8s.92-.24,1.43-.24,1.01.08,1.53.23c.51.16,1.01.37,1.5.65.66.38,1.23.81,1.69,1.29Zm-15.17-2.97l6.12,3.52.46-.8c.21-.36.28-.69.23-1.02-.05-.32-.19-.62-.41-.91s-.51-.56-.87-.82c-.36-.26-.74-.5-1.14-.74s-.8-.43-1.2-.59c-.39-.16-.76-.25-1.1-.28-.34-.02-.65.03-.93.16-.28.13-.52.37-.71.71l-.45.78Zm7.28,4.19l7.11,4.09.46-.8c.23-.4.34-.78.32-1.12-.02-.34-.15-.67-.38-.99-.24-.32-.56-.63-.97-.93-.41-.3-.9-.61-1.46-.94-1.33-.76-2.34-1.12-3.04-1.09-.7.04-1.28.46-1.74,1.25l-.31.53Z"></path><path class="cls-1" d="m33.51,49.74l6.33,4.95,1.81-2.32c-.15-.14-.35-.37-.61-.69-.26-.32-.54-.69-.83-1.12-.3-.42-.59-.89-.88-1.42-.29-.52-.53-1.06-.71-1.61l.03-.04,5.09,3.99-5.12,6.55.05-1.84-13.08-10.23-1.8.48,4.81-6.15,4.9,3.83-.03.04c-.19,0-.48-.05-.88-.14-.4-.09-.85-.22-1.33-.39s-.98-.36-1.49-.58c-.51-.22-.96-.46-1.37-.73l-1.66,2.12,5.84,4.57.9-1.15c-.14-.16-.29-.34-.45-.56-.16-.22-.31-.45-.46-.7-.15-.25-.28-.49-.38-.72-.1-.23-.18-.44-.23-.62l.07-.09,5.58,4.37-.07.09c-.16.02-.38,0-.66-.07-.28-.07-.57-.15-.88-.26-.31-.11-.6-.23-.89-.36-.29-.13-.53-.25-.71-.34l-.9,1.15Z"></path><path class="cls-1" d="m48.13,42.64c.33.54.57,1.08.71,1.61s.17,1.06.09,1.58c-.09.52-.33.97-.73,1.36-.23.22-.51.37-.86.45-.34.08-.69.1-1.03.07-.07-.01-.28-.05-.65-.11-.01.14,0,.35.04.61s.08.48.14.67c.05.18.08.29.08.31l-.2.19-5.23-5.35.22-.21c.32.14.63.29.96.46s.63.33.92.5c.7.39,1.29.73,1.79,1.01.5.28.93.5,1.31.64.38.14.7.2.98.18s.54-.15.78-.39c.21-.21.32-.45.32-.72s-.07-.55-.21-.83c-.13-.29-.31-.57-.54-.85-.22-.28-.45-.54-.68-.78-.48-.49-.92-.87-1.32-1.13-.4-.26-.79-.45-1.16-.57s-.75-.18-1.14-.18c-.38,0-.8.02-1.25.07-.61.07-1.18.1-1.71.07-.54-.03-1.04-.11-1.53-.26-.49-.15-.96-.37-1.42-.67-.46-.29-.92-.68-1.37-1.14-.37-.37-.7-.8-1.01-1.28-.31-.48-.55-.96-.72-1.45s-.23-.97-.2-1.43c.03-.46.22-.86.57-1.2.27-.26.54-.42.83-.48.28-.06.58-.06.9,0,.08,0,.17.01.29.03.11.02.2,0,.27-.07.04-.04.05-.16.03-.37-.02-.2-.04-.39-.07-.56-.03-.17-.05-.26-.05-.29l.2-.12,4.83,4.95-.16.16c-.2-.07-.46-.18-.79-.35-.33-.16-.68-.34-1.04-.55-.37-.2-.74-.42-1.1-.65-.37-.23-.7-.44-1-.65-.48-.31-.92-.5-1.3-.59-.38-.08-.69-.01-.91.21-.19.18-.27.4-.25.64.02.25.09.5.23.75.13.26.31.52.53.78s.43.5.64.71c.37.37.72.67,1.05.89s.68.38,1.04.47c.36.09.75.13,1.16.12.41,0,.88-.05,1.41-.12,1.3-.17,2.43-.05,3.41.36.98.41,1.92,1.09,2.84,2.02.42.43.79.91,1.12,1.45Z"></path><path class="cls-1" d="m43.48,27.61l-1.14.86c.28.37.54.74.79,1.09.24.35.48.73.7,1.14.22.4.44.87.64,1.4.2.53.4,1.15.59,1.87l-.16.12-4.29-5.67,5.92-4.47,4.29,5.67-.13.1c-.63-.37-1.17-.71-1.61-1.04-.45-.33-.85-.65-1.19-.98-.35-.32-.66-.65-.93-.98-.27-.33-.56-.69-.85-1.08l-1.12.84,10.01,13.24h1.86s-3.89,2.94-3.89,2.94l.55-1.78-10.03-13.27Z"></path><path class="cls-1" d="m63.24,25.45l3.41,7.24,2.02.29-4.61,2.17.88-1.62-7.08-15.02-1.82-.38,7.02-3.31,2.82,5.98-.08.04c-.77-.5-1.48-1.14-2.11-1.92-.63-.77-1.19-1.58-1.66-2.41l-2.46,1.16,3.16,6.71,1.21-.57c-.05-.2-.1-.46-.15-.78s-.09-.65-.13-.99c-.04-.34-.06-.67-.08-.99-.01-.31,0-.57.02-.77h.03s3.45,7.31,3.45,7.31h-.03c-.17-.05-.38-.2-.62-.42-.24-.23-.49-.48-.75-.76-.26-.28-.5-.56-.73-.85-.23-.28-.4-.51-.52-.68l-1.22.57Z"></path><path class="cls-1" d="m75.3,21.78c-.19-.3-.38-.52-.57-.66-.19-.14-.39-.21-.59-.21-.21,0-.42.03-.63.1l-.45.14,2.51,7.96,1.74.59-4.65,1.47,1.08-1.51-5-15.81-1.75-.62,3.31-1.05c.75-.24,1.43-.32,2.04-.25.61.07,1.15.26,1.62.56.47.3.87.7,1.2,1.2.33.5.6,1.07.8,1.71.35,1.12.39,2.06.11,2.82-.28.76-.76,1.37-1.44,1.82l.03.08c.56.04,1.11.32,1.67.85.55.53,1.04,1.27,1.48,2.23.16.38.35.84.58,1.38s.43,1.01.59,1.41c.34.89.67,1.51.99,1.87.32.36.63.59.94.69l-2.16.68c-.33-.37-.64-.79-.93-1.27-.29-.47-.54-1.05-.75-1.72-.1-.32-.2-.61-.29-.88-.09-.26-.19-.52-.29-.78-.1-.25-.2-.51-.29-.77s-.2-.54-.31-.84c-.2-.5-.39-.91-.59-1.21Zm-4.75-8.53l2.13,6.73.51-.16c.41-.13.72-.29.93-.49.21-.19.35-.44.41-.75.06-.3.05-.68-.03-1.12-.08-.44-.22-.98-.42-1.6-.34-1.09-.71-1.89-1.11-2.41-.4-.52-.96-.67-1.69-.43l-.72.23Z"></path><path class="cls-1" d="m87.77,25.82c.1-.42.1-.93,0-1.52l-2.42-14.56-1.45-.87,4.42-.73-1.25,1.34,2.42,14.56c.19,1.16,0,2.05-.59,2.68-.59.63-1.39,1.03-2.4,1.19-.5.08-.94.07-1.34-.03-.4-.1-.74-.28-1.04-.54-.3-.25-.54-.55-.73-.9-.19-.35-.32-.73-.39-1.16l-2.45-14.72-1.68-.86,4.72-.78-1.17,1.3,2.42,14.58c.11.65.32,1.12.64,1.44.32.32.73.43,1.22.35.61-.1.96-.36,1.06-.79Z"></path><path class="cls-1" d="m96.03,25.42l1.54,1.05-4.87.23,1.43-1.16-.79-16.58-1.54-1.05,4.87-.23-1.43,1.16.79,16.58Z"></path><path class="cls-1" d="m103.26,8.88l-1.43-.08c-.03.47-.06.91-.11,1.34-.04.43-.11.87-.21,1.32-.09.45-.23.94-.43,1.47-.19.53-.45,1.13-.77,1.81h-.2s.43-7.11.43-7.11l7.41.44-.42,7.1h-.17c-.24-.7-.42-1.31-.55-1.85-.13-.54-.22-1.05-.27-1.52-.06-.47-.08-.92-.07-1.35,0-.43.02-.89.05-1.37l-1.4-.08-.99,16.57,1.41,1.21-4.86-.29,1.58-1,.99-16.6Z"></path><path class="cls-1" d="m121.74,11.73l-1.38-.38c-.12.45-.25.88-.38,1.29-.13.41-.29.83-.47,1.25s-.42.88-.72,1.36c-.3.48-.67,1.02-1.12,1.61l-.19-.05,1.88-6.86,7.16,1.96-1.88,6.86-.16-.04c-.09-.72-.15-1.36-.16-1.92s0-1.07.04-1.54c.04-.47.11-.92.21-1.34s.21-.86.34-1.33l-1.35-.37-4.38,16.02,1.14,1.47-4.7-1.29,1.75-.65,4.39-16.04Z"></path><path class="cls-1" d="m133.74,15.8l-.66-1.51,3.83,1.65-1.42.61-4.36,16.2.92,1.62-4.58-1.97,1.83-.43,1.23-3.98c-.18,0-.38-.02-.58-.06-.21-.04-.42-.11-.64-.2-.19-.08-.35-.18-.48-.3-.13-.12-.28-.25-.44-.4l-2.17,3.61.79,1.56-4.06-1.75,1.82-.4,8.98-14.24Zm-.81,3.71l-.05-.02-3.79,6.38c.19.22.45.41.77.55.19.08.35.13.5.15s.31.04.51.06l2.07-7.13Z"></path><path class="cls-1" d="m140.79,36.03c-.44.45-.9.82-1.38,1.09-.48.28-.99.43-1.51.48-.52.05-1.02-.08-1.5-.37-.27-.17-.49-.41-.65-.72-.16-.31-.27-.64-.33-.98,0-.07-.02-.29-.06-.66-.14.02-.33.09-.58.19-.24.1-.45.2-.61.3-.16.1-.26.15-.29.15l-.23-.14,3.87-6.4.26.16c-.05.34-.12.69-.2,1.04-.08.35-.17.69-.25,1.01-.2.77-.38,1.43-.53,1.99-.15.55-.25,1.03-.29,1.43-.04.4-.02.73.07.99.09.26.28.48.57.65.26.15.51.2.78.12.26-.07.51-.21.76-.41.24-.2.47-.45.69-.73.22-.28.41-.57.58-.86.36-.59.61-1.11.77-1.56.15-.45.24-.88.26-1.27.02-.39-.02-.77-.11-1.15-.09-.37-.22-.77-.38-1.19-.22-.57-.39-1.12-.5-1.64-.11-.52-.15-1.04-.13-1.55.02-.51.12-1.02.29-1.54.17-.52.43-1.06.76-1.62.27-.45.6-.88.98-1.3.39-.42.79-.77,1.23-1.06.43-.28.88-.47,1.33-.55s.89,0,1.3.25c.32.19.54.42.67.68.12.26.2.55.22.87.02.08.03.17.04.29,0,.11.05.19.13.24.05.03.17,0,.36-.06.19-.07.37-.14.52-.21s.24-.11.27-.12l.16.16-3.58,5.92-.19-.12c.02-.21.06-.49.14-.85.07-.36.16-.74.27-1.15.1-.41.22-.82.35-1.23.13-.41.25-.79.37-1.13.18-.55.26-1.02.25-1.41s-.16-.67-.43-.83c-.22-.14-.45-.16-.68-.09-.23.08-.46.21-.67.41s-.42.43-.62.7c-.2.27-.37.54-.53.79-.27.45-.47.86-.6,1.24s-.19.75-.19,1.13c0,.37.06.76.17,1.15s.27.84.47,1.33c.49,1.21.66,2.34.5,3.39-.16,1.05-.57,2.14-1.25,3.25-.31.51-.68.99-1.12,1.45Z"></path><path class="cls-1" d="m154.22,27.79l-1.12-.89c-.29.37-.58.71-.86,1.04-.28.32-.59.65-.93.96s-.73.64-1.2.96-1.02.67-1.66,1.04l-.15-.12,4.42-5.57,5.81,4.62-4.42,5.57-.13-.1c.2-.7.4-1.31.61-1.82.21-.52.42-.98.65-1.4s.46-.8.71-1.15c.25-.35.53-.71.83-1.09l-1.1-.87-10.33,13,.46,1.8-3.81-3.03,1.86.08,10.35-13.02Z"></path><path class="cls-1" d="m157,41.73l-5.8,5.56,2.04,2.12c.16-.13.42-.3.77-.51.35-.21.76-.43,1.22-.67.46-.24.97-.46,1.53-.67.56-.21,1.12-.37,1.69-.48l.04.04-4.67,4.48-5.76-6,1.81.31,11.98-11.49-.22-1.85,5.41,5.64-4.49,4.3-.04-.04c.03-.18.12-.47.27-.86s.34-.81.57-1.27c.23-.46.5-.92.78-1.39.29-.47.59-.88.92-1.25l-1.86-1.94-5.36,5.14,1.01,1.05c.17-.12.38-.24.62-.36s.49-.25.76-.36c.27-.11.52-.2.77-.27.25-.07.46-.11.65-.13l.08.08-5.11,4.9-.08-.08c0-.16.06-.37.16-.64.1-.27.23-.55.38-.83.15-.29.31-.56.48-.83.17-.27.32-.48.44-.65l-1.01-1.05Z"></path><path class="cls-1" d="m161.96,57.21c-.58.25-1.15.41-1.7.48-.55.07-1.08.02-1.57-.14-.5-.16-.91-.47-1.25-.92-.19-.26-.29-.56-.32-.92-.03-.35,0-.7.08-1.03.02-.06.09-.27.2-.63-.14-.03-.34-.05-.61-.05-.26,0-.49.01-.68.04-.19.03-.3.04-.32.03l-.16-.22,6.03-4.41.18.25c-.18.29-.38.59-.59.88-.21.29-.42.57-.62.84-.48.63-.9,1.18-1.25,1.63s-.62.85-.82,1.21-.3.67-.32.94c-.02.28.07.55.27.82.18.24.4.38.67.41.27.04.55,0,.85-.09s.61-.23.92-.41c.31-.18.6-.37.87-.57.56-.41.99-.79,1.31-1.15.32-.36.56-.71.73-1.07.17-.35.28-.72.34-1.1s.1-.79.11-1.24c.01-.61.07-1.18.17-1.71.1-.53.26-1.02.48-1.48.22-.46.51-.9.86-1.31.36-.41.8-.81,1.33-1.2.42-.31.89-.58,1.41-.82.52-.24,1.03-.41,1.54-.5.51-.09.99-.09,1.44,0,.45.1.82.34,1.11.73.22.3.34.6.35.89.02.29-.03.59-.13.89-.01.08-.04.17-.07.28-.04.11-.03.2.03.27.03.04.15.07.36.08s.39.01.56,0,.27,0,.29,0l.09.21-5.58,4.08-.13-.18c.1-.19.25-.43.45-.73s.44-.62.69-.96.52-.67.8-1c.28-.33.54-.63.78-.9.38-.44.63-.84.77-1.2.14-.37.11-.68-.08-.93-.15-.21-.35-.33-.6-.34-.24-.02-.5.02-.78.12-.28.1-.56.23-.84.41-.29.18-.55.35-.79.53-.42.31-.77.61-1.03.91-.27.3-.47.62-.61.97s-.24.72-.29,1.13c-.05.41-.08.88-.08,1.41-.02,1.31-.3,2.42-.85,3.33s-1.35,1.75-2.4,2.52c-.48.35-1.01.65-1.59.9Z"></path><path class="cls-1" d="m180.71,60.95l-.59-1.3c-.43.19-.84.37-1.24.53-.4.16-.82.31-1.26.44s-.95.23-1.5.31c-.56.08-1.21.14-1.95.17l-.08-.18,6.47-2.95,3.07,6.75-6.47,2.95-.07-.15c.5-.53.95-.98,1.37-1.35.42-.36.82-.68,1.21-.95.39-.27.78-.5,1.16-.7.38-.19.8-.39,1.24-.59l-.58-1.27-15.11,6.88-.41,1.81-2.02-4.43,1.62.92,15.14-6.89Z"></path><path class="cls-1" d="m185.92,75.13l.7-1.58,1.32,4.49-1.49-1.11-15.91,4.68-.65,1.74-1.32-4.49,1.45.95,7.98-2.35c-.17-.17-.31-.37-.44-.6-.13-.23-.23-.49-.31-.75-.08-.29-.13-.54-.15-.76-.02-.22,0-.47.05-.76l-7.98,2.35-.71,1.55-1.32-4.49,1.47,1.12,15.93-4.68.66-1.74,1.32,4.49-1.41-.93-6.63,1.95c-.04.21-.05.43-.05.68,0,.25.05.53.14.83.09.3.19.55.3.74.11.19.26.4.44.61l6.61-1.94Z"></path><path class="cls-1" d="m171.7,87.81l-.86,1.65-.8-4.8,1.32,1.28,16.38-2.75.86-1.65.81,4.81-1.32-1.28-16.38,2.75Z"></path><path class="cls-1" d="m174.63,97.99c-.62-.1-1.19-.28-1.69-.52-.5-.24-.92-.57-1.25-.97-.33-.4-.52-.89-.55-1.45-.02-.32.05-.63.22-.94.17-.31.38-.59.62-.83.05-.04.22-.18.51-.42-.1-.1-.26-.23-.49-.37-.22-.14-.42-.25-.59-.33-.17-.08-.27-.13-.29-.15l-.02-.27,7.46-.45.02.31c-.31.15-.63.29-.97.42s-.66.25-.97.37c-.75.27-1.4.5-1.94.69-.54.19-.99.38-1.34.57-.35.19-.61.4-.78.62s-.24.5-.22.84c.02.3.13.53.34.71.21.17.46.3.77.39.3.08.63.13.99.15.36.02.7.01,1.04,0,.69-.04,1.26-.13,1.72-.26.46-.13.86-.3,1.19-.51.33-.21.63-.45.88-.74s.51-.62.77-.99c.34-.51.7-.95,1.07-1.34s.77-.71,1.2-.98c.43-.27.91-.48,1.44-.63.52-.15,1.11-.25,1.76-.29.52-.03,1.07,0,1.63.07.57.08,1.09.22,1.57.41.48.2.88.46,1.21.78.33.33.51.73.54,1.22.02.37-.04.69-.18.94-.14.25-.34.48-.59.68-.05.06-.12.12-.21.2-.09.07-.13.15-.12.25,0,.06.09.14.25.26s.32.22.47.31c.15.08.23.14.25.15l-.04.23-6.9.41v-.22c.17-.1.43-.23.76-.37.34-.14.7-.29,1.1-.43.39-.14.8-.28,1.21-.41.41-.13.79-.24,1.14-.33.55-.16.98-.36,1.3-.6.31-.23.46-.51.44-.83-.02-.26-.12-.46-.32-.61-.2-.15-.44-.25-.72-.32s-.6-.1-.93-.11-.66,0-.95.01c-.52.03-.98.1-1.36.21-.39.11-.73.27-1.04.48-.31.21-.59.48-.85.79-.26.31-.54.7-.83,1.14-.72,1.09-1.56,1.87-2.51,2.34-.95.47-2.08.74-3.39.82-.6.04-1.21,0-1.83-.1Z"></path><path class="cls-1" d="m178.13,114.28l-8.23-1.21.05-.33c.14-.05.3-.1.49-.15s.37-.09.54-.12c.17-.03.32-.06.42-.09.11-.03.15-.05.13-.05-.44-.34-.77-.72-.99-1.14-.22-.42-.29-.88-.22-1.4.07-.5.34-.95.79-1.34.45-.4,1.09-.71,1.92-.93s1.83-.36,3-.39c1.17-.04,2.51.06,4.01.28,1.26.18,2.48.45,3.67.81,1.19.35,2.25.76,3.18,1.2.92.45,1.65.93,2.18,1.44.53.51.75,1.03.68,1.54-.05.35-.16.63-.33.83-.17.2-.4.38-.69.55-.06.05-.15.09-.28.14-.12.05-.19.12-.2.21,0,.04.07.12.22.25.15.13.29.25.43.34s.21.15.23.17l-.04.27-6.98-1.03.03-.22c.72-.14,1.46-.24,2.21-.3.75-.07,1.45-.14,2.08-.23.64-.09,1.16-.2,1.58-.35s.65-.37.69-.66c.04-.24-.07-.47-.31-.7-.24-.22-.68-.44-1.32-.66-.64-.22-1.51-.43-2.62-.65s-2.5-.45-4.18-.7c-1.87-.28-3.37-.46-4.52-.57s-2.03-.13-2.66-.09c-.63.04-1.06.15-1.29.32-.23.17-.37.41-.42.7-.04.24,0,.46.09.65.09.19.3.37.61.54s.77.33,1.36.47c.59.14,1.37.29,2.33.43l2.52.37,1.36-1.33-.67,4.57-.86-1.46Z"></path><path class="cls-1" d="m169.5,118.13c.68-.29,1.5-.46,2.48-.5s2.05,0,3.22.16c1.17.16,2.34.4,3.5.74,1.22.35,2.37.78,3.45,1.28,1.08.5,2.01,1.04,2.8,1.61.78.58,1.37,1.17,1.76,1.77.39.6.51,1.17.35,1.71-.16.54-.55.96-1.17,1.28-.63.31-1.41.51-2.36.6-.95.08-2.02.05-3.21-.1-1.19-.15-2.44-.42-3.75-.8-1.18-.34-2.31-.77-3.39-1.26-1.08-.5-2.01-1.04-2.8-1.61s-1.38-1.17-1.78-1.79-.52-1.21-.36-1.78c.17-.57.59-1.01,1.27-1.29Zm14.1,6.97c1.39.06,2.15-.12,2.27-.55.11-.39-.45-.94-1.69-1.63-1.24-.69-3.27-1.45-6.1-2.27-1.43-.42-2.68-.73-3.75-.94-1.07-.21-1.96-.35-2.67-.41-.71-.06-1.25-.05-1.63.04-.38.08-.59.23-.65.42-.06.21.04.46.29.74.26.28.7.59,1.33.93s1.45.7,2.47,1.1c1.01.39,2.25.8,3.7,1.22,2.89.84,5.02,1.29,6.42,1.35Z"></path><path class="cls-1" d="m166.29,127.53c.71-.19,1.55-.25,2.53-.16.97.09,2.03.29,3.17.6,1.14.31,2.26.72,3.37,1.21,1.16.52,2.24,1.1,3.24,1.74,1,.64,1.85,1.3,2.55,1.98.7.68,1.2,1.34,1.5,1.99.3.65.34,1.23.11,1.74-.23.51-.67.88-1.34,1.1-.66.23-1.47.32-2.42.27-.95-.05-2-.22-3.16-.54-1.16-.31-2.36-.75-3.61-1.3-1.12-.5-2.19-1.07-3.19-1.71s-1.85-1.3-2.55-1.98c-.7-.68-1.21-1.35-1.52-2.01s-.35-1.27-.11-1.81c.24-.55.72-.92,1.43-1.11Zm13.02,8.83c1.37.25,2.14.17,2.33-.23.17-.38-.32-.99-1.45-1.84-1.13-.85-3.05-1.88-5.74-3.08-1.36-.61-2.56-1.09-3.59-1.45-1.03-.36-1.89-.61-2.58-.77-.7-.16-1.24-.22-1.62-.19-.38.03-.62.14-.7.33-.09.21-.03.46.19.78.22.31.62.68,1.2,1.1.58.42,1.34.89,2.29,1.42.95.53,2.12,1.1,3.5,1.71,2.74,1.22,4.8,1.96,6.17,2.22Z"></path><path class="cls-1" d="m163.02,144.12c-.86-.74-1.53-1.49-2.03-2.26-.49-.77-.78-1.55-.85-2.33s.14-1.56.62-2.33l2.1-3.34.14,1.84,14.07,8.82,1.74-.66-2.25,3.58c-.33.52-.74.9-1.25,1.15-.51.24-1.07.38-1.69.4-.62.02-1.27-.05-1.95-.21s-1.36-.37-2.03-.63c-.67-.26-1.33-.56-1.98-.89-.65-.34-1.23-.67-1.75-1-1.07-.67-2.04-1.38-2.9-2.12Zm13.06,2.01l-14.04-8.81-.4.64c-.23.36-.35.73-.36,1.1,0,.37.17.79.54,1.28.37.48.97,1.05,1.8,1.69.83.64,1.99,1.43,3.46,2.35,1.57.98,2.86,1.73,3.87,2.23,1.01.5,1.83.82,2.46.96.63.14,1.11.14,1.43-.01.32-.15.59-.38.79-.7l.46-.74Z"></path><path class="cls-1" d="m158.33,145.49l-1.06,1.34-2.13-1.69,1.06-1.34,2.13,1.69Z"></path></g></svg> 