<?xml version="1.0" encoding="UTF-8"?> <svg xmlns="http://www.w3.org/2000/svg" xmlns:xlink="http://www.w3.org/1999/xlink" version="1.1" id="Ebene_1" x="0px" y="0px" viewBox="0 0 183.24 184.13" style="enable-background:new 0 0 183.24 184.13;" xml:space="preserve"> <style type="text/css"> .st0{display:none;} .st1{fill:#FFFFFF;} </style> <g id="offene_Schrift_EN" class="st0"> </g> <g id="pfad"> <g> <path class="st1" d="M38.93,42.47c-0.41,0.43-0.98,0.63-1.72,0.58c-0.73-0.05-1.55-0.28-2.44-0.68s-1.82-0.94-2.79-1.61 c-0.97-0.67-1.9-1.42-2.78-2.26c-0.92-0.87-1.75-1.77-2.49-2.71c-0.73-0.94-1.32-1.84-1.75-2.71s-0.69-1.66-0.76-2.37 s0.08-1.27,0.47-1.68s0.93-0.61,1.63-0.6s1.49,0.19,2.37,0.54c0.88,0.36,1.82,0.87,2.81,1.55c0.99,0.68,1.98,1.48,2.97,2.42 c0.9,0.84,1.71,1.74,2.45,2.67c0.73,0.94,1.32,1.84,1.75,2.71s0.69,1.67,0.77,2.4S39.34,42.03,38.93,42.47z M32.93,34.54 c-2.19-2.06-3.88-3.44-5.09-4.13s-1.97-0.87-2.27-0.55c-0.28,0.3-0.03,1.04,0.76,2.22c0.79,1.18,2.25,2.78,4.4,4.8 c1.09,1.02,2.06,1.88,2.91,2.55s1.58,1.2,2.19,1.58c0.61,0.38,1.09,0.61,1.47,0.71s0.63,0.07,0.77-0.08 c0.15-0.16,0.18-0.43,0.08-0.79c-0.1-0.37-0.36-0.84-0.77-1.43s-0.97-1.29-1.7-2.1C34.94,36.5,34.03,35.58,32.93,34.54z"></path> <path class="st1" d="M46.85,33.65c0.49-0.38,0.68-0.77,0.56-1.19s-0.35-0.87-0.71-1.34l-9-11.69L36,19.35l3.55-2.73l-0.47,1.78 l9,11.69c0.72,0.93,0.97,1.81,0.75,2.64s-0.74,1.56-1.55,2.18c-0.4,0.31-0.8,0.51-1.2,0.6s-0.79,0.1-1.17,0.02 c-0.38-0.08-0.74-0.23-1.07-0.45c-0.33-0.22-0.63-0.49-0.89-0.83l-9.11-11.82l-1.88,0.04l3.79-2.92l-0.42,1.7l9.02,11.71 c0.4,0.52,0.81,0.84,1.24,0.97C46.03,34.05,46.45,33.96,46.85,33.65z"></path> <path class="st1" d="M54.76,21.54c-0.29-0.46-0.56-0.82-0.81-1.08s-0.48-0.44-0.69-0.53c-0.21-0.1-0.42-0.13-0.62-0.09 c-0.2,0.04-0.4,0.11-0.6,0.21l-0.42,0.23l3.98,7.33l1.83,0.25l-4.28,2.33l0.77-1.69L46,13.93l-1.84-0.27L47.21,12 c0.69-0.38,1.34-0.58,1.95-0.63s1.18,0.03,1.69,0.24c0.52,0.21,0.99,0.53,1.41,0.95c0.42,0.43,0.8,0.94,1.12,1.53 c0.56,1.03,0.78,1.95,0.65,2.75c-0.13,0.8-0.48,1.49-1.06,2.06l0.04,0.07c0.56-0.07,1.16,0.1,1.8,0.52s1.27,1.05,1.88,1.91 c0.23,0.34,0.51,0.76,0.84,1.25s0.61,0.91,0.85,1.27c0.5,0.81,0.94,1.36,1.33,1.65c0.38,0.29,0.73,0.46,1.05,0.5l-1.99,1.08 c-0.4-0.3-0.78-0.66-1.15-1.07c-0.37-0.41-0.73-0.93-1.07-1.55c-0.16-0.3-0.31-0.56-0.45-0.81c-0.14-0.24-0.29-0.48-0.43-0.71 c-0.15-0.23-0.29-0.46-0.43-0.71C55.08,22.06,54.93,21.81,54.76,21.54z M47.66,12.99l3.37,6.2l0.47-0.25 c0.38-0.21,0.65-0.42,0.82-0.65s0.26-0.5,0.26-0.81s-0.08-0.67-0.24-1.09c-0.16-0.42-0.4-0.92-0.71-1.49 c-0.54-1-1.06-1.72-1.55-2.15c-0.49-0.43-1.07-0.47-1.75-0.1L47.66,12.99z"></path> <path class="st1" d="M70.81,13.63l1.78,7.09l1.71,0.7l-4.73,1.19l1.17-1.45L66.69,5.08l-1.71-0.72l3.64-0.92 c1.36-0.34,2.56-0.19,3.61,0.46s1.79,1.83,2.22,3.53c0.18,0.72,0.27,1.41,0.27,2.05c0,0.65-0.12,1.23-0.35,1.76 c-0.23,0.53-0.59,0.98-1.06,1.36s-1.1,0.67-1.88,0.86L70.81,13.63z M68.53,4.59l1.97,7.82l0.73-0.18c0.83-0.21,1.33-0.66,1.5-1.34 c0.16-0.69,0.09-1.65-0.22-2.9c-0.13-0.51-0.29-1-0.49-1.48s-0.43-0.89-0.69-1.24s-0.56-0.6-0.9-0.77 c-0.34-0.16-0.73-0.19-1.16-0.08L68.53,4.59z"></path> <path class="st1" d="M85.48,12.73c-0.09-0.54-0.19-0.97-0.32-1.31c-0.12-0.34-0.26-0.59-0.42-0.76c-0.16-0.17-0.33-0.28-0.54-0.33 c-0.2-0.05-0.41-0.06-0.64-0.04l-0.47,0.04l0.76,8.31l1.58,0.95l-4.85,0.44l1.38-1.25l-1.51-16.5L78.87,1.3l3.46-0.32 c0.78-0.07,1.46-0.01,2.04,0.19s1.07,0.5,1.46,0.89c0.39,0.4,0.7,0.87,0.92,1.43s0.36,1.17,0.42,1.84 c0.11,1.17-0.06,2.1-0.49,2.78c-0.43,0.69-1.03,1.17-1.79,1.47l0.01,0.08c0.54,0.16,1.02,0.55,1.44,1.19 c0.42,0.63,0.75,1.47,0.97,2.49c0.07,0.4,0.17,0.9,0.28,1.48s0.2,1.08,0.28,1.5c0.14,0.94,0.33,1.62,0.57,2.04 s0.49,0.71,0.77,0.87l-2.26,0.21c-0.25-0.43-0.46-0.91-0.64-1.44c-0.18-0.52-0.3-1.14-0.37-1.84c-0.03-0.33-0.06-0.64-0.1-0.92 s-0.07-0.55-0.12-0.82s-0.08-0.54-0.12-0.82C85.57,13.34,85.53,13.05,85.48,12.73z M82.34,2.08l0.64,7.03l0.53-0.05 c0.43-0.04,0.77-0.13,1.02-0.28c0.25-0.14,0.44-0.36,0.56-0.64s0.19-0.65,0.21-1.1c0.01-0.45-0.01-1-0.07-1.65 c-0.1-1.13-0.3-2-0.57-2.59s-0.8-0.85-1.56-0.79L82.34,2.08z"></path> <path class="st1" d="M96.02,19.84c-0.6-0.04-1.11-0.35-1.54-0.95s-0.78-1.37-1.04-2.31s-0.44-2-0.55-3.17s-0.12-2.37-0.05-3.58 c0.08-1.27,0.24-2.48,0.49-3.64S93.9,4,94.29,3.11S95.12,1.52,95.62,1c0.5-0.51,1.03-0.75,1.59-0.72s1.06,0.32,1.5,0.86 s0.81,1.26,1.1,2.17s0.49,1.96,0.61,3.15s0.13,2.47,0.05,3.83c-0.07,1.23-0.24,2.43-0.48,3.59s-0.57,2.19-0.96,3.08 s-0.84,1.6-1.35,2.13C97.17,19.63,96.61,19.88,96.02,19.84z M98.26,10.16c0.18-3,0.15-5.19-0.09-6.56s-0.59-2.07-1.04-2.1 c-0.41-0.03-0.82,0.64-1.22,2s-0.69,3.51-0.87,6.46c-0.09,1.49-0.12,2.78-0.09,3.87c0.03,1.09,0.09,1.98,0.19,2.69 c0.1,0.71,0.23,1.23,0.39,1.58s0.35,0.53,0.56,0.54c0.22,0.01,0.44-0.14,0.66-0.45c0.22-0.31,0.42-0.82,0.61-1.51 c0.19-0.69,0.37-1.57,0.52-2.65C98.04,12.96,98.17,11.67,98.26,10.16z"></path> <path class="st1" d="M113.56,13.04c-0.28,1.24-0.62,2.38-1.02,3.44c-0.41,1.05-0.89,1.94-1.46,2.67c-0.56,0.72-1.2,1.25-1.91,1.58 c-0.71,0.33-1.52,0.39-2.41,0.19l-3.85-0.86l1.69-0.74l3.61-16.21L107,1.7l4.13,0.92c0.6,0.13,1.1,0.4,1.5,0.79 c0.4,0.4,0.71,0.88,0.94,1.46c0.22,0.58,0.38,1.21,0.45,1.91s0.1,1.4,0.09,2.12c-0.02,0.72-0.08,1.44-0.18,2.15 C113.82,11.75,113.7,12.42,113.56,13.04z M110.07,3.5l-3.6,16.18l0.74,0.17c0.42,0.09,0.8,0.08,1.15-0.03s0.69-0.42,1.03-0.93 c0.33-0.51,0.66-1.26,0.99-2.26c0.33-1,0.68-2.35,1.06-4.05c0.4-1.81,0.67-3.27,0.8-4.39s0.16-2,0.09-2.64 c-0.08-0.64-0.24-1.09-0.49-1.34c-0.25-0.26-0.56-0.43-0.92-0.51L110.07,3.5z"></path> <path class="st1" d="M119.29,23.86c0.57,0.23,1.01,0.19,1.32-0.12c0.31-0.31,0.57-0.74,0.79-1.29l5.53-13.68l-0.79-1.5l4.15,1.68 l-1.77,0.49L123,23.12c-0.44,1.09-1.08,1.75-1.9,1.98c-0.83,0.23-1.72,0.15-2.67-0.23c-0.47-0.19-0.84-0.43-1.12-0.73 s-0.49-0.63-0.61-1s-0.17-0.75-0.15-1.15s0.11-0.79,0.27-1.19l5.59-13.84l-0.98-1.6l4.44,1.79l-1.68,0.5l-5.54,13.71 c-0.25,0.61-0.31,1.13-0.21,1.56C118.53,23.35,118.82,23.67,119.29,23.86z"></path> <path class="st1" d="M137.06,20.88c0.12-0.6,0.3-1.26,0.55-1.99c0.25-0.72,0.47-1.42,0.67-2.08s0.33-1.25,0.38-1.76 s-0.05-0.84-0.3-1c-0.21-0.12-0.46-0.12-0.76,0.02c-0.3,0.14-0.67,0.46-1.11,0.97s-0.98,1.23-1.6,2.17 c-0.62,0.94-1.37,2.14-2.24,3.6c-0.92,1.54-1.64,2.81-2.16,3.8c-0.53,0.99-0.89,1.79-1.11,2.39s-0.29,1.05-0.23,1.35 c0.06,0.3,0.21,0.52,0.45,0.66c0.24,0.14,0.52,0.18,0.83,0.12s0.67-0.25,1.07-0.57c0.4-0.31,0.84-0.76,1.3-1.34 s0.97-1.33,1.51-2.24l0.5-0.84l0.63,0.7l-0.66,1.11c-0.51,0.85-1,1.59-1.49,2.22s-0.98,1.14-1.46,1.53 c-0.48,0.39-0.96,0.62-1.44,0.69s-0.95-0.03-1.42-0.3c-0.95-0.56-1.33-1.7-1.14-3.4c0.19-1.7,1.06-3.87,2.63-6.5 c0.65-1.09,1.36-2.13,2.12-3.1c0.77-0.98,1.53-1.81,2.29-2.5s1.47-1.18,2.15-1.48c0.67-0.29,1.24-0.31,1.69-0.04 c0.58,0.34,0.9,0.85,0.96,1.51c0.02,0.08,0.03,0.18,0.03,0.31s0.04,0.22,0.12,0.27c0.03,0.02,0.1,0,0.2-0.04 c0.1-0.05,0.22-0.11,0.35-0.18l0.5-0.29l0.21,0.19l-3.71,6.23L137.06,20.88z"></path> <path class="st1" d="M147.77,21.15l-1.11-0.9c-0.29,0.36-0.58,0.71-0.87,1.03c-0.29,0.32-0.6,0.64-0.94,0.96 c-0.34,0.31-0.74,0.63-1.2,0.95c-0.46,0.32-1.02,0.66-1.67,1.02l-0.15-0.12l4.48-5.53l5.77,4.67l-4.48,5.53l-0.13-0.11 c0.21-0.7,0.41-1.3,0.62-1.82c0.21-0.51,0.43-0.98,0.66-1.39c0.23-0.42,0.47-0.8,0.73-1.14c0.25-0.35,0.54-0.71,0.84-1.08 l-1.09-0.88l-10.47,12.93l0.47,1.78l-3.79-3.07l1.88,0.08L147.77,21.15z"></path> <path class="st1" d="M151.13,42.06c-0.44,0.41-0.93,0.76-1.48,1.08c-0.55,0.31-1.09,0.54-1.63,0.67 c-0.54,0.13-1.07,0.14-1.58,0.04s-0.96-0.36-1.34-0.77c-0.22-0.24-0.36-0.53-0.42-0.87c-0.07-0.35-0.08-0.69-0.04-1.03 c0-0.05,0.01-0.11,0.03-0.18s0.03-0.13,0.05-0.2l0.05-0.28c-0.12-0.02-0.26-0.02-0.44,0s-0.35,0.04-0.52,0.07 c-0.21,0.05-0.42,0.09-0.63,0.14l-0.19-0.2l5.49-5.07l0.21,0.23c-0.14,0.31-0.31,0.62-0.48,0.94c-0.18,0.32-0.35,0.62-0.52,0.9 c-0.41,0.68-0.76,1.27-1.06,1.76c-0.3,0.49-0.52,0.92-0.68,1.29s-0.22,0.69-0.21,0.97s0.14,0.54,0.37,0.79 c0.2,0.22,0.44,0.33,0.71,0.34c0.27,0,0.55-0.06,0.84-0.18s0.58-0.3,0.86-0.51c0.29-0.21,0.55-0.43,0.8-0.66 c0.51-0.47,0.9-0.9,1.17-1.29s0.47-0.77,0.6-1.15c0.13-0.37,0.2-0.75,0.21-1.13c0.02-0.38,0.01-0.8-0.03-1.25 c-0.06-0.61-0.06-1.18-0.02-1.71s0.14-1.04,0.31-1.52s0.4-0.95,0.71-1.4c0.31-0.45,0.7-0.9,1.18-1.34 c0.38-0.35,0.82-0.68,1.31-0.98c0.49-0.3,0.98-0.52,1.47-0.67s0.97-0.21,1.43-0.16c0.46,0.04,0.86,0.25,1.18,0.6 c0.25,0.27,0.4,0.55,0.45,0.84s0.04,0.59-0.03,0.9c0,0.08-0.02,0.17-0.04,0.29c-0.03,0.11-0.01,0.2,0.06,0.27 c0.03,0.03,0.1,0.04,0.23,0.04c0.13,0,0.26-0.01,0.41-0.01c0.16-0.02,0.35-0.04,0.58-0.08l0.11,0.2l-5.08,4.69l-0.15-0.16 c0.07-0.2,0.2-0.45,0.37-0.78c0.17-0.32,0.36-0.67,0.58-1.03c0.21-0.36,0.44-0.72,0.68-1.08s0.46-0.69,0.67-0.98 c0.32-0.48,0.53-0.9,0.63-1.28c0.09-0.38,0.03-0.69-0.18-0.92c-0.18-0.19-0.39-0.28-0.63-0.27s-0.5,0.08-0.76,0.21 s-0.53,0.3-0.79,0.5c-0.27,0.21-0.51,0.41-0.73,0.61c-0.38,0.35-0.69,0.7-0.92,1.02c-0.23,0.33-0.4,0.67-0.5,1.03 s-0.15,0.74-0.16,1.15c0,0.41,0.02,0.88,0.08,1.41c0.13,1.3-0.02,2.43-0.46,3.4C152.79,40.25,152.09,41.17,151.13,42.06z"></path> </g> </g> </svg> 