<?xml version="1.0" encoding="UTF-8"?> <svg xmlns="http://www.w3.org/2000/svg" id="Pfad_EN" data-name="Pfad EN" version="1.1" viewBox="0 0 183.24 184.13"><defs><style> .cls-1 { fill: #fff; stroke-width: 0px; } </style></defs><path class="cls-1" d="M13.56,46.34l-1.58.46,2.14-3.58.42,1.49,15.5,6.48,1.7-.71-2.56,4.27-.18-1.87-3.78-1.74c-.02.18-.07.37-.13.57-.07.2-.16.4-.29.61-.11.18-.23.32-.36.44-.13.12-.29.24-.46.38l3.29,2.62,1.65-.58-2.27,3.79-.18-1.87-12.9-10.77h0ZM17.13,47.63l-.03.05,5.83,4.6c.25-.16.46-.39.64-.69.11-.18.18-.33.22-.47.04-.14.08-.3.13-.49l-6.79-2.99h0Z"></path><path class="cls-1" d="M36.36,42.99c-.14-.15-.35-.39-.62-.74s-.55-.75-.85-1.21-.59-.96-.89-1.51c-.29-.55-.54-1.1-.73-1.66l.04-.04,5.21,4.38-5.35,6.36.12-1.84-12.73-10.71-1.79.43,3.14-3.73-.1,1.86,12.66,10.65,1.89-2.25h0Z"></path><path class="cls-1" d="M44.49,35.14c-.12-.17-.29-.44-.5-.83-.21-.38-.43-.83-.66-1.32-.22-.5-.44-1.04-.65-1.63s-.36-1.17-.47-1.75l.04-.04,4.48,5.12-6.25,5.48.4-1.8-10.96-12.51-1.83.16,3.66-3.21-.38,1.82,10.91,12.45,2.21-1.94Z"></path><path class="cls-1" d="M50.35,11.56l-1.58-.46,3.73-1.87-.45,1.48,9.61,13.79,1.82.31-4.46,2.23.85-1.68-2.26-3.5c-.12.14-.26.28-.42.41s-.35.25-.57.36c-.18.09-.36.15-.54.18s-.37.05-.59.08l1.37,3.98,1.7.4-3.95,1.98.85-1.68-5.12-16.01h.01ZM52.67,14.56l-.05.03,2.45,7.01c.29,0,.6-.08.91-.24.18-.09.33-.19.44-.28.11-.1.23-.21.37-.35l-4.13-6.17h.01Z"></path><path class="cls-1" d="M72.39,16.42c.23.73.34,1.43.36,2.1.01.67-.09,1.28-.3,1.82-.21.54-.53,1.01-.94,1.4-.42.39-.94.69-1.56.88l-4.28,1.33,1.09-1.48-4.92-15.86-1.75-.63,4.07-1.26c.62-.19,1.21-.23,1.76-.12s1.05.33,1.5.66c.44.33.83.75,1.16,1.25s.59,1.04.76,1.61c.28.89.33,1.71.16,2.45s-.64,1.43-1.4,2.06l.02.05c.52-.02,1,.06,1.44.24.44.19.84.45,1.21.79s.69.75.96,1.21.49.96.65,1.49h0ZM63.66,6.02l2.09,6.74.88-.27c.39-.12.68-.32.86-.59s.29-.59.32-.95,0-.76-.08-1.19-.2-.87-.33-1.32c-.14-.45-.3-.86-.47-1.25s-.38-.7-.62-.95c-.23-.25-.5-.42-.79-.52s-.63-.08-1,.03l-.86.27h0ZM66.14,14.04l2.43,7.84.88-.27c.45-.14.78-.34,1-.6s.35-.59.4-.99c.04-.39.02-.84-.08-1.34s-.24-1.06-.43-1.68c-.45-1.46-.95-2.42-1.49-2.87s-1.25-.54-2.12-.27l-.59.18Z"></path><path class="cls-1" d="M81.17,20.45c-.59.08-1.16-.12-1.7-.62-.54-.5-1.04-1.18-1.48-2.05s-.84-1.87-1.18-3c-.34-1.13-.6-2.29-.77-3.5-.18-1.26-.27-2.48-.26-3.67,0-1.19.11-2.26.31-3.21.2-.95.5-1.73.88-2.33.38-.6.85-.94,1.41-1.02.55-.08,1.1.1,1.65.54.54.44,1.05,1.08,1.52,1.9.47.83.88,1.82,1.23,2.96s.63,2.39.82,3.74c.18,1.22.26,2.42.25,3.61s-.11,2.26-.32,3.21-.5,1.74-.89,2.36-.88.98-1.47,1.06v.02ZM81.41,10.52c-.43-2.97-.9-5.11-1.42-6.4s-1-1.91-1.44-1.84c-.41.06-.67.79-.79,2.21-.12,1.41.03,3.58.45,6.5.21,1.48.44,2.75.69,3.8.25,1.06.49,1.92.73,2.6s.47,1.16.71,1.47c.23.31.45.44.65.42.22-.03.41-.22.55-.58.15-.35.24-.88.29-1.6.05-.71.04-1.61-.02-2.7-.06-1.08-.2-2.38-.42-3.87h.02Z"></path><path class="cls-1" d="M92.81,18.48c.62.01,1.01-.18,1.19-.58.17-.4.27-.9.28-1.49l.24-14.75-1.27-1.11,4.48.07-1.47,1.1-.24,14.75c-.02,1.18-.37,2.02-1.06,2.53-.69.51-1.55.76-2.57.74-.5,0-.94-.1-1.31-.27-.37-.17-.68-.41-.93-.72-.25-.3-.43-.64-.56-1.02s-.18-.78-.18-1.21l.24-14.92-1.49-1.14,4.79.08-1.39,1.07-.24,14.78c-.01.65.11,1.16.37,1.53s.63.56,1.14.56h-.02Z"></path><path class="cls-1" d="M106.05,2.76l-1.41-.24c-.08.46-.16.9-.25,1.32s-.21.85-.35,1.29-.34.91-.58,1.42c-.25.51-.57,1.08-.96,1.71l-.19-.03,1.2-7.01,7.31,1.25-1.2,7.01-.17-.03c-.16-.71-.28-1.34-.34-1.89-.07-.55-.1-1.06-.11-1.54,0-.47.02-.92.08-1.35.05-.43.12-.88.21-1.36l-1.38-.24-2.81,16.39,1.28,1.33-4.8-.82,1.68-.85,2.8-16.37h-.01Z"></path><path class="cls-1" d="M128.97,19.05c-.52,1.16-1.08,2.21-1.7,3.16-.61.95-1.27,1.72-1.96,2.32-.7.6-1.43.98-2.19,1.16-.77.18-1.57.08-2.4-.3l-3.6-1.62,1.8-.39,6.81-15.15-.89-1.63,3.86,1.73c.56.25,1,.61,1.31,1.08s.52,1,.62,1.61c.1.61.12,1.26.06,1.96s-.18,1.4-.34,2.1c-.16.7-.37,1.39-.61,2.07s-.49,1.3-.75,1.88l-.02.02ZM127.47,9l-6.79,15.12.69.31c.39.18.77.24,1.14.2.37-.04.76-.28,1.19-.71.43-.43.91-1.1,1.43-2.02.52-.91,1.14-2.16,1.85-3.75.76-1.69,1.32-3.07,1.67-4.14.36-1.07.56-1.93.62-2.57.05-.64-.02-1.11-.21-1.42s-.46-.53-.8-.68l-.79-.36v.02Z"></path><path class="cls-1" d="M140.99,16.27l-.38-1.6,3.47,2.31-1.51.34-7.21,15.18.63,1.73-4.15-2.76,1.88-.09,1.92-3.69c-.18-.03-.37-.09-.56-.16-.2-.08-.4-.18-.6-.32-.17-.11-.31-.24-.42-.38s-.23-.3-.36-.47l-2.78,3.16.5,1.68-3.68-2.45,1.88-.09,11.37-12.38h0ZM139.53,19.77l-.05-.03-4.87,5.6c.14.25.36.48.66.68.17.11.33.19.46.24s.3.1.49.15l3.31-6.64h0Z"></path><path class="cls-1" d="M146.53,34.49c.34-.42.59-.79.76-1.11s.26-.59.29-.82c.02-.23,0-.44-.11-.62-.1-.18-.23-.35-.4-.5l-.35-.32-5.67,6.12.35,1.81-3.58-3.31,1.85.19,11.26-12.17-.33-1.83,2.55,2.36c.57.53.98,1.08,1.22,1.65.24.56.34,1.12.31,1.68s-.18,1.1-.45,1.64c-.27.54-.63,1.05-1.09,1.55-.8.86-1.6,1.36-2.4,1.5-.8.14-1.56.02-2.29-.35l-.06.06c.24.51.27,1.13.08,1.87-.19.74-.59,1.54-1.2,2.39-.25.33-.55.72-.91,1.19-.36.47-.67.87-.93,1.21-.6.74-.98,1.33-1.14,1.79-.15.46-.2.84-.13,1.15l-1.66-1.54c.16-.47.37-.95.64-1.44s.64-.99,1.13-1.51c.23-.25.43-.48.62-.69.18-.21.36-.42.53-.63.17-.21.35-.42.53-.63.18-.21.38-.44.58-.69h0ZM152.34,25.03l-4.79,5.18.39.36c.32.29.61.48.88.57s.56.08.85-.01c.29-.1.61-.29.96-.58.34-.29.74-.68,1.18-1.16.77-.83,1.29-1.56,1.54-2.16s.1-1.17-.46-1.69l-.56-.51h0Z"></path><path class="cls-1" d="M155.35,47.04c-.6.47-1.21.83-1.83,1.09-.62.25-1.22.38-1.81.37-.58,0-1.13-.13-1.65-.38-.52-.25-.98-.63-1.38-1.14l-2.77-3.52,1.78.49,13.04-10.28-.04-1.86,2.64,3.34c.4.51.65,1.05.75,1.6.09.56.07,1.1-.08,1.63-.15.53-.4,1.04-.75,1.54-.35.49-.76.92-1.23,1.29-.73.58-1.48.92-2.23,1.03-.76.11-1.56-.08-2.42-.57l-.04.04c.21.48.31.95.29,1.43s-.12.95-.31,1.42c-.19.47-.45.91-.78,1.33s-.72.8-1.16,1.15h-.02ZM155.33,40.35l-6.44,5.08.57.72c.29.37.6.61.92.72.33.11.68.12,1.07.02.38-.1.79-.29,1.22-.55.43-.27.9-.6,1.42-1.01,1.2-.95,1.92-1.75,2.14-2.42.22-.66.05-1.36-.51-2.07l-.38-.48h-.01ZM161.92,35.15l-5.54,4.37.57.73c.25.32.54.52.86.59s.65.06,1-.04c.35-.1.71-.26,1.09-.5.37-.23.74-.5,1.11-.79s.7-.58.99-.89c.29-.3.52-.61.67-.92.15-.31.22-.62.2-.92-.02-.31-.15-.62-.39-.92l-.55-.7h-.01Z"></path><path class="cls-1" d="M154.74,56.68c-.29-.52-.3-1.12-.04-1.81s.73-1.39,1.38-2.12c.65-.73,1.44-1.46,2.37-2.18s1.92-1.38,2.98-1.98c1.11-.62,2.22-1.14,3.33-1.56s2.15-.71,3.11-.86,1.79-.16,2.49-.02c.7.14,1.19.46,1.46.95s.3,1.07.09,1.73c-.22.67-.62,1.37-1.23,2.1-.6.74-1.38,1.47-2.32,2.22-.94.74-2.01,1.45-3.2,2.11-1.07.6-2.17,1.11-3.28,1.54s-2.15.71-3.11.86-1.8.16-2.52.02-1.23-.47-1.52-.99h0ZM164.1,53.32c2.62-1.47,4.44-2.68,5.46-3.63s1.42-1.62,1.2-2.01c-.2-.36-.98-.34-2.34.06s-3.33,1.32-5.9,2.76c-1.3.73-2.4,1.4-3.3,2.01s-1.62,1.15-2.16,1.61-.91.86-1.12,1.19-.25.58-.15.76c.11.2.35.3.73.31.38,0,.91-.09,1.6-.3s1.52-.54,2.51-.99c.99-.45,2.14-1.04,3.46-1.78h0Z"></path></svg> 