<?xml version="1.0" encoding="UTF-8"?> <svg xmlns="http://www.w3.org/2000/svg" id="Pfad_EN" data-name="Pfad EN" version="1.1" viewBox="0 0 183.24 184.13"><defs><style> .cls-1 { fill: #282828; stroke-width: 0px; } </style></defs><path class="cls-1" d="M13.77,45.98l-.74,1.22c.4.24.78.48,1.13.72.36.24.71.5,1.07.8s.73.65,1.11,1.06c.38.42.79.92,1.24,1.52l-.1.17-6.08-3.69,3.85-6.34,6.08,3.69-.09.14c-.72-.11-1.35-.23-1.88-.38s-1.03-.3-1.47-.47c-.44-.17-.85-.36-1.23-.57-.38-.21-.77-.44-1.19-.69l-.73,1.2,14.22,8.63,1.7-.7-2.53,4.17-.17-1.87-14.19-8.62Z"></path><path class="cls-1" d="M36.05,45.71c-.38.46-.94.68-1.68.68-.74,0-1.56-.18-2.47-.53-.91-.35-1.87-.83-2.88-1.44-1.01-.61-1.98-1.31-2.91-2.08-.97-.81-1.86-1.67-2.64-2.56-.79-.89-1.43-1.76-1.91-2.6-.49-.84-.79-1.62-.9-2.32s0-1.27.36-1.7.89-.66,1.59-.7c.7-.04,1.5.1,2.4.4s1.87.76,2.9,1.38c1.03.62,2.07,1.36,3.11,2.24.94.79,1.81,1.63,2.6,2.52.79.89,1.43,1.76,1.91,2.6.49.84.79,1.63.92,2.35.12.72,0,1.32-.39,1.77ZM29.59,38.16c-2.3-1.93-4.08-3.2-5.33-3.82-1.25-.62-2.02-.75-2.3-.41-.26.32.03,1.04.89,2.17.86,1.13,2.42,2.64,4.68,4.53,1.15.96,2.16,1.75,3.05,2.37.89.62,1.65,1.1,2.28,1.45s1.13.55,1.51.62c.38.07.63.03.76-.13.14-.17.15-.44.03-.8-.12-.36-.41-.82-.85-1.38s-1.05-1.23-1.82-2c-.77-.77-1.74-1.63-2.9-2.6Z"></path><path class="cls-1" d="M49.18,33.44c-.48.35-1.08.43-1.79.25-.71-.19-1.47-.56-2.27-1.12-.8-.56-1.61-1.26-2.44-2.1s-1.6-1.75-2.31-2.74c-.75-1.03-1.39-2.07-1.94-3.13-.55-1.06-.95-2.05-1.21-2.99-.26-.94-.37-1.76-.31-2.48.06-.71.32-1.23.77-1.56.45-.33,1.02-.42,1.71-.29.69.14,1.43.46,2.23.98.8.52,1.62,1.2,2.47,2.05.85.85,1.67,1.83,2.47,2.93.72,1,1.36,2.02,1.9,3.08.54,1.06.95,2.05,1.21,2.99.26.94.37,1.77.31,2.51-.06.73-.33,1.27-.81,1.62ZM44.77,24.54c-1.76-2.43-3.17-4.1-4.23-5.01-1.06-.9-1.77-1.22-2.13-.96-.33.24-.22,1.01.33,2.32.55,1.31,1.7,3.15,3.43,5.54.88,1.21,1.67,2.23,2.38,3.05s1.33,1.48,1.85,1.96c.52.49.96.81,1.31.97.35.16.61.18.77.06.18-.13.25-.39.22-.77-.03-.38-.19-.9-.48-1.55-.29-.65-.71-1.45-1.27-2.38-.56-.93-1.28-2.01-2.17-3.23Z"></path><path class="cls-1" d="M58.6,26.28c.55-.28.81-.63.78-1.07-.03-.43-.18-.92-.45-1.45l-6.65-13.17-1.64-.39,4-2.02-.79,1.66,6.65,13.17c.53,1.05.61,1.96.24,2.73-.37.77-1.02,1.39-1.93,1.86-.45.23-.88.35-1.29.37-.41.02-.79-.05-1.15-.2-.36-.15-.68-.37-.97-.64s-.52-.6-.72-.99l-6.73-13.32-1.85-.32,4.27-2.16-.73,1.59,6.66,13.2c.29.58.64.98,1.04,1.19s.82.2,1.27-.03Z"></path><path class="cls-1" d="M68.65,15.87c-.2-.5-.4-.91-.59-1.21-.19-.3-.39-.52-.58-.65-.19-.13-.39-.2-.59-.21s-.42.03-.63.1l-.45.14,2.53,7.95,1.75.59-4.64,1.48,1.08-1.52-5.02-15.8-1.75-.62,3.31-1.05c.75-.24,1.43-.32,2.04-.25.61.07,1.15.26,1.62.56.47.3.87.7,1.2,1.2s.6,1.07.81,1.71c.36,1.12.39,2.06.12,2.82-.28.76-.76,1.37-1.44,1.82l.03.08c.56.04,1.12.32,1.67.85.55.53,1.05,1.27,1.49,2.23.16.38.36.84.59,1.38.23.54.43,1.01.6,1.41.34.89.67,1.51.99,1.87s.63.59.94.68l-2.16.69c-.33-.37-.64-.79-.93-1.27-.29-.47-.54-1.05-.75-1.72-.1-.32-.2-.61-.29-.88-.09-.26-.19-.52-.29-.77-.1-.25-.2-.51-.29-.77s-.2-.54-.31-.84ZM63.3,6.14l2.14,6.72.51-.16c.41-.13.72-.29.93-.49.21-.19.35-.44.41-.75.06-.3.05-.68-.03-1.12-.08-.44-.22-.98-.42-1.6-.34-1.08-.72-1.89-1.12-2.41-.4-.52-.96-.66-1.69-.43l-.72.23Z"></path><path class="cls-1" d="M85.9,11.13l.42,7.3,1.54,1-4.86.28,1.42-1.2-.95-16.55-1.55-1.03,3.75-.21c1.4-.08,2.55.3,3.46,1.13.91.84,1.41,2.13,1.51,3.88.04.75,0,1.44-.12,2.07-.12.63-.35,1.19-.68,1.67-.33.48-.76.86-1.29,1.14s-1.2.45-2,.49l-.64.04ZM85.37,1.83l.46,8.05.75-.04c.86-.05,1.43-.4,1.72-1.04.29-.64.4-1.61.33-2.89-.03-.52-.1-1.04-.2-1.54-.11-.51-.25-.96-.44-1.35-.19-.39-.44-.7-.74-.93-.3-.23-.68-.33-1.12-.3l-.75.04Z"></path><path class="cls-1" d="M100.48,12.99c.01-.54,0-.99-.07-1.34-.06-.35-.15-.63-.27-.83-.12-.2-.28-.34-.47-.42-.19-.08-.4-.14-.62-.16l-.47-.05-.79,8.31,1.37,1.23-4.85-.46,1.58-.97,1.58-16.5-1.37-1.25,3.46.33c.78.07,1.44.26,1.97.57s.96.69,1.27,1.15c.31.46.52.99.64,1.58s.14,1.22.07,1.89c-.11,1.17-.44,2.05-1,2.64-.55.59-1.23.96-2.03,1.11v.08c.49.25.89.73,1.19,1.43.3.7.46,1.58.49,2.63,0,.41,0,.91,0,1.5,0,.59,0,1.1,0,1.53-.03.95.02,1.66.18,2.11.15.46.35.79.59,1l-2.26-.22c-.16-.47-.28-.98-.36-1.53-.08-.55-.08-1.17-.02-1.88.03-.33.06-.64.07-.92.02-.28.03-.56.04-.83,0-.27.02-.55.04-.83.02-.28.03-.58.04-.9ZM99.37,1.94l-.67,7.02.53.05c.43.04.78.01,1.05-.08.27-.1.5-.27.67-.53.17-.26.31-.6.41-1.04.1-.44.18-.99.24-1.64.11-1.13.08-2.02-.08-2.65s-.63-.99-1.39-1.06l-.75-.07Z"></path><path class="cls-1" d="M109.49,21.93c-.58-.15-1.02-.55-1.34-1.22-.31-.67-.51-1.49-.59-2.46-.08-.97-.06-2.05.05-3.22.12-1.17.32-2.35.62-3.53.31-1.23.7-2.39,1.16-3.49.46-1.1.97-2.04,1.52-2.85.55-.8,1.12-1.41,1.71-1.82.59-.41,1.15-.54,1.69-.41.54.14.98.51,1.31,1.13.33.62.56,1.39.68,2.34.12.95.12,2.01,0,3.21-.11,1.2-.34,2.45-.67,3.77-.3,1.19-.69,2.34-1.15,3.43-.46,1.1-.97,2.05-1.52,2.85-.55.8-1.13,1.42-1.73,1.84-.6.42-1.19.56-1.77.42ZM113.51,12.84c.74-2.91,1.12-5.06,1.14-6.46.02-1.39-.19-2.14-.62-2.25-.4-.1-.92.48-1.57,1.74-.65,1.26-1.34,3.32-2.06,6.18-.37,1.45-.64,2.71-.82,3.78-.18,1.07-.28,1.96-.32,2.68-.04.71,0,1.25.09,1.63.1.37.25.58.45.63.22.06.46-.05.73-.32.27-.27.56-.72.88-1.36.32-.64.66-1.47,1.01-2.5.36-1.03.72-2.27,1.1-3.74Z"></path><path class="cls-1" d="M128.02,18.57c-.51,1.16-1.06,2.22-1.66,3.18s-1.24,1.74-1.93,2.35c-.69.61-1.42,1-2.18,1.19-.76.19-1.56.1-2.4-.27l-3.62-1.57,1.8-.41,6.61-15.23-.92-1.62,3.88,1.68c.57.25,1.01.6,1.32,1.06.32.46.53,1,.65,1.61.11.61.14,1.26.08,1.96-.06.7-.16,1.4-.32,2.1-.15.71-.35,1.4-.58,2.08-.23.68-.48,1.31-.73,1.89ZM126.39,8.54l-6.6,15.21.69.3c.39.17.77.23,1.14.19.37-.05.76-.29,1.18-.72.42-.44.89-1.12,1.4-2.04.51-.92,1.11-2.18,1.8-3.77.74-1.7,1.28-3.08,1.62-4.16s.54-1.93.58-2.58-.03-1.11-.23-1.41-.46-.52-.81-.67l-.8-.35Z"></path><path class="cls-1" d="M131.59,30.27c.52.33.96.38,1.31.13s.7-.62,1.02-1.12l8.01-12.4-.49-1.62,3.76,2.43-1.83.15-8.01,12.4c-.64.99-1.39,1.52-2.24,1.59-.86.07-1.71-.17-2.58-.73-.42-.27-.75-.58-.97-.93-.22-.34-.36-.71-.41-1.1-.05-.39-.03-.77.06-1.16.09-.38.26-.76.49-1.12l8.1-12.54-.66-1.76,4.02,2.6-1.75.17-8.02,12.42c-.35.55-.52,1.05-.5,1.5.02.45.24.81.67,1.08Z"></path><path class="cls-1" d="M149.62,30.7c.23-.57.53-1.19.91-1.85.38-.66.72-1.3,1.04-1.92s.55-1.17.7-1.66c.15-.49.11-.84-.11-1.03-.18-.16-.43-.2-.75-.12-.32.08-.74.33-1.27.74-.53.42-1.19,1.03-1.98,1.84-.79.81-1.75,1.85-2.88,3.12-1.19,1.34-2.13,2.45-2.83,3.33-.7.88-1.21,1.59-1.54,2.14-.32.55-.48.97-.48,1.28,0,.3.11.55.32.73s.47.28.79.27c.32,0,.7-.12,1.16-.36.46-.23.96-.59,1.53-1.07.57-.48,1.2-1.12,1.91-1.92l.65-.73.49.8-.85.96c-.66.74-1.29,1.38-1.88,1.9-.6.53-1.17.94-1.72,1.22-.55.29-1.06.42-1.55.41-.48-.02-.93-.21-1.33-.56-.83-.73-.99-1.91-.48-3.55.5-1.64,1.77-3.6,3.8-5.89.84-.95,1.73-1.83,2.67-2.65.94-.82,1.84-1.49,2.71-2.03.87-.54,1.67-.88,2.39-1.05s1.27-.07,1.66.28c.5.45.72,1,.66,1.67,0,.08,0,.18-.03.31-.03.13,0,.22.07.28.03.02.1.02.21,0,.11-.03.24-.06.38-.11l.54-.19.17.23-4.81,5.43-.25-.22Z"></path><path class="cls-1" d="M160.08,32.95l-.92-1.09c-.36.3-.71.58-1.04.85-.34.26-.71.52-1.1.76-.39.25-.85.48-1.36.71s-1.13.46-1.84.69l-.13-.15,5.43-4.59,4.79,5.66-5.43,4.59-.11-.13c.33-.65.65-1.21.95-1.67.3-.46.61-.88.91-1.25.3-.37.61-.69.93-.99.31-.29.66-.59,1.03-.91l-.9-1.07-12.7,10.74.12,1.84-3.15-3.72,1.83.43,12.67-10.73Z"></path><path class="cls-1" d="M159.47,54.12c-.51.32-1.06.58-1.66.78s-1.17.32-1.73.35c-.56.03-1.08-.06-1.56-.25-.48-.2-.88-.53-1.17-1.01-.17-.27-.25-.58-.25-.94s.05-.7.15-1.02c.01-.05.03-.11.06-.17s.06-.12.08-.18l.1-.26c-.11-.04-.25-.07-.43-.08s-.35-.03-.53-.03c-.22,0-.43.01-.65.02l-.14-.23,6.35-3.95.16.26c-.2.28-.42.56-.65.83-.23.28-.46.54-.68.79-.53.6-.99,1.11-1.37,1.53-.38.43-.69.81-.91,1.14-.22.33-.35.64-.39.92-.04.28.03.56.21.84.16.25.37.41.63.46.26.05.55.05.86-.02.31-.07.62-.18.94-.34.32-.16.62-.32.91-.5.59-.36,1.05-.71,1.39-1.05.34-.33.61-.67.8-1.01.19-.34.33-.7.42-1.07.09-.37.15-.78.21-1.23.06-.61.16-1.17.3-1.69.14-.52.34-1,.59-1.44.25-.44.57-.86.96-1.24.39-.38.86-.75,1.41-1.09.44-.28.93-.52,1.47-.72.54-.2,1.06-.33,1.57-.39.51-.06.99-.02,1.44.11.44.13.79.4,1.05.81.2.32.29.62.29.91,0,.29-.07.58-.2.88-.02.08-.05.17-.09.27-.04.1-.04.2,0,.28.02.03.09.06.21.08.12.02.26.04.4.06.16.01.35.02.58.03l.07.22-5.87,3.66-.12-.19c.11-.18.28-.41.51-.7.23-.29.48-.59.76-.9.28-.32.57-.63.87-.94.3-.31.58-.59.85-.84.41-.41.69-.79.86-1.14.16-.36.16-.67,0-.94-.14-.22-.33-.35-.57-.39-.24-.04-.5-.02-.79.06-.28.08-.57.19-.87.35-.3.15-.58.31-.83.47-.44.28-.81.55-1.1.83-.29.28-.51.58-.68.92-.17.33-.29.7-.37,1.1s-.14.87-.18,1.4c-.11,1.3-.48,2.39-1.09,3.25s-1.48,1.65-2.59,2.34Z"></path></svg> 