<?xml version="1.0" encoding="UTF-8"?> <svg xmlns="http://www.w3.org/2000/svg" id="Pfad_EN" data-name="Pfad EN" version="1.1" viewBox="0 0 183.24 184.13"><defs><style> .cls-1 { fill: #fff; stroke-width: 0px; } </style></defs><path class="cls-1" d="M29.1,39.22l6.09,5.24,1.94-.58-3.33,3.86.12-1.86-12.58-10.83-1.79.41,5.06-5.88,5.01,4.31-.06.06c-.91-.14-1.81-.44-2.71-.89-.89-.45-1.73-.96-2.5-1.52l-1.77,2.06,5.62,4.84.88-1.02c-.13-.16-.28-.38-.46-.65-.17-.27-.35-.56-.52-.85s-.33-.59-.47-.87-.24-.52-.29-.71l.02-.02,6.13,5.28-.02.02c-.18,0-.43-.03-.74-.14s-.64-.24-.99-.39c-.35-.15-.69-.31-1.01-.48s-.57-.3-.75-.41l-.88,1.02Z"></path><path class="cls-1" d="M42.9,36.6l1.83-.18-3.62,3.26.35-1.83-11.11-12.34-1.83.18,3.62-3.26-.35,1.83s11.11,12.34,11.11,12.34Z"></path><path class="cls-1" d="M47.41,24.38l.05-.03-5.46-7.96-1.61-.22,3.16-2.17-.49,1.66,10.07,14.68-.9.62-11.87-10.43-.05.03,8,11.66,1.86.08-3.49,2.39.59-1.76-9.39-13.69-1.86-.08,3-2.06s8.39,7.28,8.39,7.28Z"></path><path class="cls-1" d="M60.57,16.15c.54,1.15.97,2.26,1.3,3.35s.49,2.08.48,3c0,.92-.18,1.72-.55,2.42-.36.7-.96,1.24-1.79,1.63l-3.57,1.68.88-1.62-7.07-15.02-1.82-.38,3.83-1.8c.56-.26,1.12-.36,1.67-.29s1.1.26,1.63.58c.53.32,1.04.73,1.52,1.23s.94,1.05,1.37,1.63.82,1.18,1.18,1.81.67,1.22.94,1.8v-.02ZM51.96,10.75l7.06,15,.68-.32c.39-.18.69-.43.89-.73s.29-.76.24-1.37-.25-1.41-.6-2.4-.9-2.27-1.64-3.85c-.79-1.68-1.47-3-2.05-3.96-.58-.97-1.1-1.68-1.55-2.14s-.86-.71-1.21-.76-.7,0-1.04.16l-.79.37h0Z"></path><path class="cls-1" d="M78.21,20.95c-.59.11-1.16-.07-1.73-.55-.56-.47-1.08-1.14-1.57-1.99-.48-.85-.92-1.83-1.3-2.95-.39-1.11-.69-2.27-.92-3.46-.23-1.25-.37-2.47-.41-3.65-.04-1.19.02-2.26.18-3.22s.42-1.75.78-2.37.81-.98,1.37-1.08c.55-.1,1.11.05,1.67.47.56.42,1.09,1.03,1.6,1.84.5.81.95,1.78,1.36,2.91.4,1.13.73,2.37.98,3.71.23,1.21.36,2.41.4,3.6s-.02,2.26-.18,3.22-.43,1.76-.79,2.4-.84,1.01-1.43,1.12h0ZM78.03,11.01c-.55-2.95-1.11-5.07-1.68-6.34s-1.08-1.86-1.51-1.78c-.4.08-.63.82-.69,2.24s.18,3.57.72,6.47c.27,1.47.56,2.73.85,3.77.29,1.05.57,1.9.83,2.56s.52,1.14.77,1.44c.24.3.47.43.67.39.22-.04.4-.24.53-.6s.21-.89.23-1.61c.02-.72-.03-1.61-.13-2.7-.11-1.08-.3-2.37-.58-3.85h0Z"></path><path class="cls-1" d="M89.78,18.5c.62-.02,1-.23,1.16-.63.16-.41.23-.91.21-1.5l-.38-14.75-1.32-1.06,4.48-.12-1.43,1.16.38,14.75c.03,1.18-.29,2.03-.96,2.57-.67.54-1.52.82-2.54.85-.5.01-.95-.06-1.32-.22-.38-.16-.7-.38-.96-.67s-.46-.62-.6-.99c-.14-.37-.21-.77-.23-1.2l-.39-14.92-1.54-1.08,4.79-.12-1.34,1.13.38,14.78c.02.65.16,1.16.43,1.52s.66.53,1.16.52l.02-.02Z"></path><path class="cls-1" d="M102.36,2.25l-1.42-.18c-.06.46-.13.91-.2,1.33s-.17.86-.3,1.3c-.12.45-.3.93-.52,1.44-.23.52-.52,1.1-.89,1.75l-.19-.02.91-7.05,7.36.95-.91,7.05-.17-.02c-.19-.7-.33-1.33-.42-1.88s-.15-1.06-.17-1.53-.02-.92.02-1.35c.04-.43.08-.88.15-1.36l-1.39-.18-2.13,16.5,1.33,1.27-4.83-.62,1.64-.92,2.13-16.47h0Z"></path><path class="cls-1" d="M123.37,7.01l-6.41,15.62.97,1.61-3.83-1.57,1.8-.47,6.3-15.36-.96-1.57,3.72,1.53-3.3,11.27.05.02,5.62-10.31,3.82,1.57-1.76.52-6.28,15.31,1.03,1.63-4.33-1.78,1.72-.5,6.27-15.28-.08-.03-8.38,15.63-.93-.38,5.05-17.39-.1-.04v-.03Z"></path><path class="cls-1" d="M129.82,30.6c-.51-.32-.81-.84-.9-1.57-.1-.73-.03-1.57.19-2.52s.56-1.97,1.03-3.05,1.02-2.14,1.66-3.17c.67-1.08,1.39-2.07,2.17-2.97.77-.9,1.54-1.65,2.31-2.25s1.49-1,2.18-1.22c.68-.21,1.26-.17,1.74.13.47.3.78.79.91,1.48.13.69.11,1.5-.07,2.43-.18.94-.5,1.96-.97,3.06-.47,1.1-1.06,2.24-1.79,3.39-.65,1.04-1.37,2.02-2.14,2.92s-1.54,1.66-2.31,2.25c-.77.6-1.5,1.01-2.2,1.23s-1.3.18-1.81-.14h0ZM136.41,23.16c1.59-2.55,2.6-4.49,3.04-5.81.44-1.32.47-2.1.09-2.34-.35-.22-1.02.18-2.02,1.18s-2.28,2.76-3.84,5.26c-.79,1.27-1.43,2.38-1.93,3.35-.49.97-.87,1.79-1.12,2.45-.25.67-.39,1.19-.41,1.58-.02.38.06.63.23.74.19.12.46.09.79-.08.34-.17.76-.52,1.25-1.03.5-.52,1.07-1.21,1.72-2.08.65-.87,1.38-1.95,2.18-3.23h.02Z"></path><path class="cls-1" d="M144.42,32.55c.32-.43.56-.81.72-1.14.15-.32.24-.6.26-.83.02-.23-.03-.44-.13-.62-.11-.18-.24-.34-.41-.49l-.36-.31-5.44,6.32.41,1.8-3.69-3.18,1.85.12,10.82-12.56-.4-1.82,2.63,2.26c.59.51,1.02,1.05,1.28,1.6.26.56.38,1.11.37,1.67,0,.56-.14,1.11-.39,1.66s-.59,1.08-1.03,1.58c-.77.89-1.55,1.42-2.34,1.58s-1.56.08-2.3-.27l-.05.06c.26.5.31,1.12.15,1.86-.16.74-.53,1.56-1.12,2.43-.24.33-.53.74-.87,1.22s-.64.9-.89,1.25c-.58.76-.94,1.37-1.07,1.83-.14.46-.17.85-.09,1.16l-1.72-1.48c.14-.48.34-.96.59-1.46.25-.49.61-1.01,1.07-1.55.22-.25.42-.49.59-.71.17-.22.34-.44.51-.65.16-.22.33-.44.51-.65.18-.22.36-.45.55-.71v.03ZM149.89,22.89l-4.6,5.35.4.35c.33.28.63.46.9.54.28.08.56.06.85-.04.29-.11.6-.31.94-.62.34-.3.72-.7,1.14-1.2.74-.86,1.23-1.6,1.46-2.21.23-.61.06-1.17-.52-1.67l-.57-.49h0Z"></path><path class="cls-1" d="M153.29,38.24l-6.13,5.2,1.9,2.24c.17-.12.44-.27.8-.46.37-.19.79-.39,1.26-.59.47-.21,1-.4,1.57-.58s1.14-.3,1.72-.38l.04.04-4.93,4.19-5.38-6.34,1.81.41,12.66-10.74-.13-1.84,5.05,5.96-4.74,4.02-.04-.04c.04-.18.15-.46.32-.84s.38-.79.65-1.23c.26-.44.55-.89.87-1.34.31-.45.64-.85.99-1.19l-1.74-2.05-5.66,4.8.94,1.11c.18-.1.39-.21.64-.33.25-.11.51-.22.78-.31.27-.1.53-.17.78-.22.25-.05.47-.08.65-.1l.07.09-5.4,4.58-.07-.09c0-.16.08-.37.2-.63s.27-.53.43-.81c.17-.28.35-.54.53-.8.19-.26.35-.46.48-.63l-.94-1.11h.02Z"></path></svg> 