<?xml version="1.0" encoding="UTF-8"?> <svg xmlns="http://www.w3.org/2000/svg" id="Ebene_2" data-name="Ebene 2" viewBox="0 0 208.95 101.08"><defs><style> .cls-1 { fill: #1d1d1b; } .cls-2 { fill: #e30613; } .cls-2, .cls-3 { stroke: #1d1d1b; stroke-miterlimit: 10; stroke-width: .74px; } .cls-3 { fill: #009640; } </style></defs><g><path class="cls-2" d="m75.09,21.78l-1.39-1.26s-.48-.41-.14-.94c.33-.52,1.59-1.86,2.52-3.52.98-1.74,1.49-3.13,1.83-3.96.17-.42.14-.73-.11-.86-.19-.09-.51.02-1.03.19-1.19.4-3.14.56-5.08-1.68-1.56-1.81-1.72-4.83-.44-6.99,1.14-1.92,3.59-2.45,5.14-2.36,1.55.09,4.1,1.34,5.3,3.78,1.62,3.29.71,6.66.14,8.48-.57,1.82-2.06,4.49-3.61,6.6-1.14,1.54-1.82,2.54-2.33,2.74-.41.16-.8-.22-.8-.22Z"></path><path class="cls-3" d="m81.54,17.28s5.99-7.31,6.84-8.36c.85-1.05,1.23-1.68,1.62-1.7.96-.06,1.39,2.79.71,4.57-.74,1.95-1.88,3.62-3.91,5.04-1.99,1.39-3.77,1.58-4.77,1.55-.44-.02-.63-.14-.72-.36-.14-.36.23-.75.23-.75Z"></path><path class="cls-2" d="m105.95,49.75v-20.27s-.05-3.23-.05-3.92c0-.55-.37-.84-.99-.84-1.45,0-2.02.25-2.02-.97,0-1.35.17-1.36,1.52-1.36,1.25,0,2.75.1,6.23-.07,3.48-.17,3.64-.25,4.35-.31.71-.07,1.45-.13,1.45.74,0,1.26-.08,2.18.64,1.38.67-.73,3.32-3.29,6.79-2.59,3.13.62,4.12,2.61,4.51,4.5.5,2.42-.82,5.83-3.55,6.47-2.06.47-3.7-.11-4.72-1.57-.75-1.08-.79-2.34-.44-3.27.29-.75.19-2.69-1.33-1.35-1.35,1.19-1.97,2.79-1.97,5.06v17.39c0,1.49-.15,2.11,1.23,2.11s1.78-.24,1.78,1.11-.24,1.19-2.94,1.19-9.88-.02-11.54-.02-1.97.12-1.97-1.09.31-1.18,1.35-1.18c1.33,0,1.66.07,1.66-1.14Z"></path><path class="cls-2" d="m70.84,51.39s.04-.34-.29-.54c-.2-.11-.58-.09-.58-.09h-1.08s-.47.04-.65-.26c-.12-.19-.13-.35-.14-.53-.02-.22-.02-.52-.02-.52V8.17s.05-.54-.11-.74c-.2-.25-.66-.17-.66-.17,0,0-5.47.41-5.83.45-.35.03-5.54.07-6.08.07s-.5.57-.5.57v1.05s0,.26.16.41c.19.17.41.15.41.15h1.42s.29-.02.48.15c.26.23.24.65.24.65v12.37s.01,1.02-.43.61c-.38-.36-.92-.91-1.89-1.43-1.08-.58-4.29-1.52-7.18.69-2.94,2.24-4.24,5.8-4.92,9.05-.74,3.62-.82,8.77.69,13.46,1.56,4.85,4.1,7.09,6.57,7.79,2.14.62,4.16.03,5.09-.68,1.04-.8,1.41-1.31,1.75-1.88.52-.86.42.58.42.58v.89s-.02.35.12.57c.25.37.8.32.8.32h11.29s.44.02.65-.1c.29-.15.27-.56.27-.56v-1.06Zm-13.26-5.55c-.25,1.05-.53,1.69-1.1,2.49-.63.88-1.07,1.11-1.61.99-.28-.06-1.03-.42-1.23-2.26-.2-1.87-.16-6.11-.16-11.07,0-4.4.12-6.65.27-7.78.28-2.19.99-2.33,1.18-2.39.28-.09.88,0,1.52.63.84.82,1.12,1.8,1.26,2.78.1.73.12,2.05.12,2.05v12.07c0,.63-.03,1.58-.26,2.49Z"></path><path class="cls-2" d="m155.31,32.18c-.68-3.26-1.98-6.81-4.92-9.05-2.89-2.2-6.07-1.15-7.21-.39-.91.62-1.64,1.35-1.97,1.76-.55.69-.46-.96-.46-.96v-14.34s.08-1.11-.16-1.45c-.36-.49-1.42-.27-1.42-.27,0,0-2.84.28-5.01.35-2.17.06-5.54-.01-6.08-.01s-.5.57-.5.57v1.13s0,.27.16.41c.2.18.41.16.41.16h1.54s.29-.02.48.15c.27.23.24.65.24.65,0,0,0,38.42-.02,38.64-.01.18.03.69-.23.98-.28.29-.68.37-.68.37h-.94s-.38-.03-.58.09c-.33.19-.29.53-.29.53v1.06s-.02.41.26.57c.21.11.65.09.65.09h11.45s.55.04.8-.32c.15-.22.12-.58.12-.58v-.72s-.1-1.44.42-.59c.34.57.66.92,1.7,1.72.94.71,2.84,1.29,4.99.68,2.47-.7,5.01-2.94,6.56-7.79,1.51-4.69,1.44-9.85.69-13.46Zm-10.44,15.42c-.07,1.57-.85,2.04-1.53,1.95-.59-.07-1.17-.68-1.55-1.32-.41-.68-.69-1.44-.91-2.86-.22-1.41-.2-2.88-.2-2.88v-10.04s.02-.96.1-1.83c.09-1.11.34-2.7,1.42-4.03.64-.78,1.23-.85,1.53-.81.55.07.99.44,1.1,2.17.07,1.13.11,2.22.11,10.12,0,6.5.03,7.58-.06,9.52Z"></path><path class="cls-2" d="m102.41,46.5c-.18-.21-.55-.22-.96-.22-.38,0-.69-.01-.91.1-.25.12-.34.39-.41.67-.07.29-.1.45-.18.84-.16.77-.52,1.15-.87,1.08-.46-.08-.62-.22-.62-2.95s.02-13.04,0-14.02c-.02-.98.18-3.7-1.32-6.03-1.49-2.33-3.48-3.17-4.89-3.65-1.4-.48-4.1-.96-6.95-.62-2.84.34-5.15,1.03-7.41,2.88-2.26,1.85-2.73,3.93-2.6,5.32.25,2.52,2,3.6,3.07,4.09,1.24.57,5.11.57,6.21-2.45,1.12-3.1-.87-4.73-1.3-5.24-.55-.67-.1-2.12,2.49-2.06,2.49.05,2.15,3.27,2.15,3.27v6.61s-2.08.42-5.03,1.19c-2.9.76-5.07,1.8-6.7,3.31-1.87,1.72-3.32,5.81-2.31,9.15,1.01,3.33,2.54,5.1,5.72,5.65,3.4.58,5.37-.6,6.44-1.34,1.14-.78,2.02-1.86,2.24-1.85.27.02,1.06,1.29,2.52,2.4,1.47,1.12,4.18,1.6,7.02.53,2.92-1.11,3.64-2.7,4.12-3.93.3-.78.43-1.38.53-1.93.07-.35.06-.66-.07-.81Zm-14.38-8.69c0,1.33,0,6.63-.07,7.64-.07,1.01-.31,2.37-1.46,2.98-.83.45-1.4.27-1.7-.16-.31-.45-.39-.8-.48-2.3-.14-2.2-.12-4.78.33-6.24.44-1.42,1.26-2.29,2.06-2.7.84-.42,1.32-.55,1.32.78Z"></path><path class="cls-2" d="m171.17,21.79c-7.28,0-13.19,7.2-13.19,16.09s5.91,16.1,13.19,16.1,13.19-7.21,13.19-16.1-5.91-16.09-13.19-16.09Zm2.01,27.78c0,1.11-.9,2.01-2.01,2.01s-2.01-.9-2.01-2.01v-23.39c0-1.11.9-2.01,2.01-2.01s2.01.9,2.01,2.01v23.39Z"></path></g><g><path class="cls-1" d="m66.67,36.99c-.95-.23-3.14-.07-6.65,2.49-3.83,2.79-6.79,6.68-11.26,12.65,3.52-.98,7.71-2.17,13.12-6.28,4.7-3.53,5.87-6.27,6.01-6.86.2-.83.03-1.69-1.22-2m-38.07,3.32c6.13,1.49,7.81,6.56,6.72,11.02-1.18,4.88-5.12,8.4-9.46,10.95-1.69.98-7.02,3.97-12.2,2.72-3.63-.88-5.09-3.69-4.42-6.49.65-2.68,3.32-5.12,3.98-4.96.18.04.48.37.41.66-.07.3-.31.49-1,1.02-.46.33-1.86,1.95-2.23,3.49-.62,2.56.92,4.26,3.07,4.78,6.97,1.69,18.32-8.99,19.89-15.48,1.07-4.41-2.87-5.86-4.29-6.21-8.81-2.14-23.56,9.04-26.26,20.18-2.01,8.28,4.76,12.63,9.52,13.78,11.43,2.77,18.78-6.99,29.83-21.65-1.72-.17-2.84-.25-3.61-.43-.36-.09-1.19-.29-1.05-.89.06-.24.34-.61,1.47-.34.54.13,2.05.37,4.21.33,3.25-4.07,6.07-7.61,9.3-10.54,5.83-5.33,11.97-7,14.59-6.36,1.67.4,2.45,1.6,2.07,3.15-.92,3.81-8.57,11.67-21.37,14.55-7.52,10.72-7.78,11.04-9.15,12.79-2.55,3.23-11.33,14.22-26.21,10.61C1.03,74.23-.83,64.2.8,57.47c2.76-11.37,16.6-19.87,27.8-17.16"></path><path class="cls-1" d="m199.74,66.17c3.84-2.53,1.79-14.67-.5-18.15-1.11-1.69-2.72-2.46-4.36-1.39-1.48.98-1.92,2.66-2.06,4-.45,3.45,1.05,11.41,2.97,14.33,1.28,1.95,2.83,1.96,3.95,1.22m-5.45-20.11c3.33-2.19,7.14-1.18,9.81,2.87,2.73,4.15,4.95,14.78,4.44,20.25-.35,3.82-1.7,8.89-6.21,11.86-3.22,2.12-7.23,2.04-9.15-.87-1.28-1.95-1.38-4.67.62-5.98,1.38-.91,2.93-.46,3.6.57.81,1.23.56,2.86-.36,3.47-.77.5-1.77-.01-2.18.26-.26.17-.62.85-.01,1.77,1.25,1.89,4.17,1.88,6.47.36,4.76-3.13,3.98-8.78,2.87-15.38-.23-1.24-1.15-6.21-1.56-7.85.21,1.77.1,2.94,0,4.11-.08,1-.4,4.08-2.65,5.56-2.25,1.48-6.52,1.13-9.04-2.71-3.3-5.02-2.41-14.48,3.38-18.28"></path><path class="cls-1" d="m42.25,68.98l.11-.27c.15-.2.77-.91,3.07-2.41,3.27-2.13,4.64-2.47,5.69-2.03.22.09.44.18.64.33,1.37.89,1.87,2.65.81,5.83-.53,1.59-1.41,2.78-4.57,5.73l-4.2,3.75c-.48.38-.93.84-1.38,1.3-1.18,1.13-1.65,1.64-1.98,1.96-.52.63-.69.88-.82,1.21-.17.58-.19,1.08.09,1.65.16.39.37.67.59.76.42.24.85.29,1.87,0,.66-.18,2.08-.82,3.28-1.68.89-.6,1.68-1.24,2.4-2.04.35-.37.53-.49.63-.58l.34-.05c.1-.09.16-.06.21-.04.06.02.09.1.06.16l-.07.17-.19.31-.19.31c-1.13,1.47-2.85,2.82-5.16,3.87-1.64.68-2.38.76-3.18.49-.46-.13-.97-.47-1.52-1.02-1.22-1.41-1.44-3.7-.1-6.76.63-1.35,1.98-3.06,4.22-5.03l3.68-3.26c.5-.44,1.01-.87,1.44-1.28,1.33-1.19,1.83-1.76,2.16-2.08.62-.71.79-.97.95-1.35.11-.28.2-.63.15-.84-.12-.63-.47-1.04-.83-1.12-.35-.08-.72.02-2.13.6-.39.16-1.06.53-2.13,1.25l-2.91,2.03-.36.24-.31.13-.23.1-.05-.02c-.06-.02-.06-.16-.07-.29"></path><path class="cls-1" d="m58.22,61.96c-.68-.54-.81-1.18-.43-2.25.27-.66.92-1.43,1.72-2.13.46-.33.87-.54,1.26-.7.83-.3,1.4-.26,1.87,0,.11.05.2.15.31.19.66.6.82,1.44.4,2.3-.16.39-.43.73-.62,1.03-1.43,1.73-3.05,2.22-3.96,1.91-.16-.07-.36-.21-.56-.36"></path><path class="cls-1" d="m55.45,90.86l-4.06-.99,8.57-12.23c2.91-4.14,3.92-5.74,4.96-7.76l.4-.89c.23-.68.04-1.16-.56-1.49-.06-.01-.1-.09-.22-.11-.41-.1-.87.03-1.68.57-.14.09-.29.18-.37.28l-1.56,1.34c-.95.87-1.2,1.12-1.43,1.31l-2.04,2.33-.29.17-.09.1-.2.07-.07.05-.13.03-.12-.03c-.04-.07-.03-.13,0-.25l.08-.35.37-.53c.7-.87,1.39-1.69,2.2-2.47,3.02-3.07,4.57-3.62,6.13-3.24,1.09.33,1.6,1,1.64,2.61.05.57-.05,1.46-.32,2.56-.45,1.61-1.45,3.95-3.89,7.9-.32.54-.63,1.07-1,1.6.59-.66,1.19-1.37,1.78-2.02,1.4-1.44,2.56-2.7,3.63-3.79,2.36-2.38,3.08-3.06,4.07-3.86,2.75-2.22,3.63-2.56,4.82-2.39.94.17,1.64.83,2.04,2.22.16.59.21,1.65.06,2.78-.29,1.96-2.44,6.47-6.95,11.64-.36.47-.79.98-1.15,1.44-.99,1.29-1.41,1.99-1.64,2.43-.63,1.32-.62,2.06-.19,2.78.09.14.13.22.23.3.28.38.61.52.9.59.29.07.67.04,1.03-.18.77-.37,1.14-.64,1.3-.79,1.38-1.38,2.69-2.72,4.01-4.12l.33-.35.3-.23.27-.12h.06s.12.04.12.04l.03.13.02.19-.06.23c-.06.23-.44.81-2.03,2.52-2.91,3.1-4.36,3.79-5.94,3.47-1.23-.24-1.97-.97-2.54-2.71-.41-1.33-.37-3.28.2-5.11.87-2.55,1.81-4.17,5.62-8.71l1.12-1.32c1.12-1.32,1.97-2.53,2.63-3.72l.39-.83c.03-.12.07-.29.1-.41.06-.23.06-.48-.02-.68-.1-.33-.29-.56-.45-.66-.33-.14-.71-.11-1.62.34-1.54.79-5.09,3.74-12.01,11.45-1.52,1.72-2.73,3.14-4.51,5.66l-2.31,3.18Z"></path><path class="cls-1" d="m80.91,89.3c-.04-.24-.03-.42,0-.66.25-2.44,1.18-5.06,3.34-8.12,4.47-6.47,9.88-9.04,13.67-8.55,2.37.37,3.37,1.29,3.67,3.53.04.3.01.6.05.9-.03.42-.07.83-.16,1.25-.37,1.65-1.25,2.95-2.32,3.53-.62.31-1.11.45-1.59.47-.54.02-1.01-.14-1.4-.53-.5-.46-.76-1.02-.71-1.61.03-.36.11-.65.2-1,.44-1.04,1.33-1.63,2.11-1.63.24.02.47.1.76.18.17.07.41.09.59.11.53.1,1.03-.22,1.29-1.15,0-.12.07-.17.08-.29.04-.48-.04-.96-.24-1.46-.4-.93-1.15-1.41-2.16-1.49-2.61-.27-5.59,1.83-10,9.75-.98,1.72-1.85,3.63-2.31,4.97-.98,2.56-1.15,3.14-1.34,4.08-.13.83-.06,1.49.08,1.98.58,1.72,1.72,2.53,3.33,2.54,2.51.02,4.59-1.19,7.8-5.43.33-.45.61-.85.94-1.24.28-.46.41-.63.54-.74l.26-.22.24-.04s.06,0,.12,0c.06,0,.11.07.1.31l-.03.42c-.14.23-.63,1.15-2.03,2.95-3.19,3.94-5.55,5.07-8.28,4.73l-.77-.12c-.53-.1-1.06-.26-1.52-.48-3.18-1.39-4.4-3.4-4.3-6.93"></path><path class="cls-1" d="m108.18,83.63c.21-.55.43-1.04.7-1.59.8-1.89,1.29-2.87,1.72-3.79,2.23-4.42,3.25-5.42,4.78-5.86.18-.07.36-.08.47-.14,1.07-.11,1.63.28,1.93,1.46,0,.06,0,.18.02.3.11.89-.33,2.95-1.08,4.72-1.62,3.49-3.7,4.79-7.52,4.92-.36.02-.66.03-1.02,0m-6.2,7.42c.05,2.21,1.23,4.18,3.39,5.63,1.17.72,2.5,1.07,4.11.99,3.04-.21,5.94-2.03,7.74-5.29,2.15-3.7,2.36-4.18,2.41-4.36l-.07-.24-.07-.18-.12-.05h-.06c-.06,0-.12,0-.12,0l-.23.19-.17.25c-.11.18-.28.43-.38.79-1.16,2.99-3.19,5.54-5.04,6.71-1.33.84-2.39,1.19-3.52,1.25-.95.11-1.92-.14-2.61-.71-.81-.62-1.27-1.37-1.37-2.26-.18-1.13.13-3.36,1.69-7.98.15-.49.31-.97.46-1.46.42-.02.84-.04,1.25-.06.48-.02,1.01-.05,1.55-.14,7.02-.71,10.97-5.33,10.41-9.31-.29-2.26-1.36-3.28-3.22-3.42h-1.08c-4,.14-8.51,3.05-12.14,9.33-.94,1.6-1.63,3.25-2.09,4.83-.61,2.12-.82,3.81-.74,5.47"></path><path class="cls-1" d="m172.7,79.72c1.38-3.48,3.68-6.1,6.32-9.08,1.5-1.72,4-4.53,5.31-9.21.1-.48.5-2.42.8-3.68-1,1.29-2.4,1.94-3.27,2.23-1.81.59-4.68.88-6.63,1-1.01.07-1.94.18-2.82.47-1.92.63-2.57,1.81-2.59,4.71.02.25-.04.85-.51,1-.29.1-.58-.2-.68-.49-.13-.41.3-4.22.52-5.52.43-2.65,1.1-4.55,3.72-5.4,2.8-.91,5.17.25,6.81,1.13,2.05.95,2.97,1.42,4.14,1.04,2.16-.7,1.27-4.02,1.06-4.86-.09-.49-.43-1.73.44-2.01.29-.1.93-.11,1.14.53.19.58.04,2.69-.03,3.49-.49,6.41-2.76,10.5-3.45,11.76-.96,1.8-2.14,3.53-3.17,5.29-3.45,5.83-3.15,9.34-2.77,13.66.11,1.12.36,3.88-1.79,4.58-.64.21-2.66.35-3.45-2.1-.66-2.04-.25-5.72.89-8.54"></path><path class="cls-1" d="m157.18,74.13c2.03-1.72,6.2-5.24,5.12-10.59-.45-2.22-2.48-3.94-5.24-3.39-2.76.55-5.49,3.79-4.79,7.27.3,1.5,1.17,3.33,4.91,6.7m-2.1,19.11c4.15-.83,6.45-4.61,5.81-7.79-.44-2.16-1.91-3.62-6.91-7.99-2.57,2.14-6.91,5.76-5.79,11.35.83,4.15,4.61,4.89,6.89,4.43m-1.85-16.38c-2.08-1.96-3.79-3.62-4.32-6.26-1-4.99,3.13-10.25,8.42-11.31,3.6-.72,7.33.72,8.05,4.32.95,4.75-4.09,8.57-7.52,11.13,5.47,4.53,6.35,5.79,6.77,7.89,1.06,5.29-3.88,10.28-9.4,11.39-5.65,1.13-9.85-1.15-10.66-5.17-1.06-5.29,3.93-8.73,8.66-11.99"></path><path class="cls-1" d="m139.66,94.71c.18-.02.67-.08.74.53.06.49-.67.57-.79.59-.97.11-5.61.54-6.65.66-.85.1-5.03.78-6,.9-.55.07-.67-.48-.68-.54-.06-.55.67-.63,1.88-.78,2.86-.34,3.22-1.49,4.51-6.21.7-2.43,4.8-19.39,4.54-21.64-.24-2.01-1.59-1.97-2.7-1.96-1.91.04-2.16,0-2.21-.48-.02-.18.06-.56.6-.63.37-.04,2.34-.09,2.76-.14.49-.06,1.4-.17,2.7-.63,1.19-.39,3.07-1.66,3.78-2.42.44-.48.49-.55.74-.58.18-.02.62.05.67.41.11.91-3.28,12.42-6.22,25.66-1.08,4.94-1.2,5.45-1.12,6.18.17,1.46,1.76,1.27,3.46,1.07"></path></g></svg> 