<?xml version="1.0" encoding="UTF-8"?> <svg xmlns="http://www.w3.org/2000/svg" width="59" height="64" viewBox="0 0 59 64" fill="none"><path d="M37.5424 0.742319C34.8232 1.73847 33.2885 4.02693 33.1808 7.28463C33.0193 11.6192 37.3001 15.3346 41.0693 14.0423L42.0924 13.6923L41.9039 14.4462C41.527 15.9539 39.8308 19.0231 38.1078 21.3385L36.3039 23.7616L38.027 25.3231C38.9693 26.1577 39.8308 26.8577 39.9385 26.8846C40.2347 26.8846 42.7385 23.8692 44.1385 21.7423C45.8078 19.2654 47.2078 16.5192 47.827 14.5C48.4462 12.4808 48.5808 8.73847 48.0962 6.85386C46.8308 1.98078 41.877 -0.873065 37.5424 0.742319ZM56.0116 8.63078C55.5001 9.25001 54.9078 9.95001 54.6924 10.1923C54.477 10.4346 53.5078 11.5923 52.5385 12.75C51.5693 13.9346 50.5732 15.1462 50.3308 15.4423C46.7232 19.7231 45.2693 21.5808 45.4039 21.7154C45.6193 21.9577 46.3193 22.0654 47.827 22.0923C52.9962 22.2269 58.7847 16.3846 58.3809 11.4039C58.2732 10.0577 57.3847 7.50001 57.0078 7.50001C56.9539 7.50001 56.4962 8.01155 56.0116 8.63078ZM30.4078 8.20001C30.327 8.25386 27.1501 8.52309 23.8655 8.73847C23.2731 8.7654 20.9578 8.81924 18.7501 8.84617L14.6847 8.92694L14.7116 10.5692V12.2116L16.327 12.3462L17.9424 12.4808L17.9693 19.8039C17.9962 23.8423 17.9693 27.1539 17.9155 27.1539C17.8616 27.1539 17.2693 26.8039 16.5962 26.3731C13.4193 24.3539 9.19238 24.7039 6.33853 27.2077C4.10391 29.1731 2.40776 32.1346 1.38468 35.85C0.603913 38.6231 0.442374 40.2385 0.469297 44.6539C0.49622 47.9116 0.603913 49.0154 1.19622 51.3846C2.16545 55.1808 3.75391 58.3846 5.66545 60.2692C7.84622 62.45 9.30007 63.0692 12.1539 63.0692C14.6847 63.0692 15.6539 62.7192 17.2155 61.2654C18.1039 60.4039 18.2385 60.4846 18.1039 61.9385C18.077 62.1808 18.1847 62.45 18.3462 62.5577C18.5616 62.6923 29.0616 62.8 33.827 62.7192L34.6347 62.6923L34.5808 61.05C34.5539 60.1615 34.4732 59.3269 34.3655 59.2462C34.2847 59.1385 33.6385 59.0577 32.9385 59.0308C32.2385 59.0039 31.5924 58.9769 31.4847 58.95C31.3501 58.95 31.2693 47.5077 31.2693 33.5346C31.2693 11.1346 31.2155 8.11924 30.8655 8.11924C30.6501 8.11924 30.4347 8.14617 30.4078 8.20001ZM16.6501 31.5154C18.1847 33.2116 18.2116 33.3192 18.2655 42.8769C18.2924 52.0577 18.1847 53.1885 17.0808 55.7462C16.6231 56.7962 15.6808 57.4692 15.0078 57.2269C14.2808 56.9577 14.1462 54.8577 14.1193 45.1923C14.0924 33.2923 14.3347 30.9231 15.627 30.9231C15.8693 30.9231 16.3539 31.1923 16.6501 31.5154Z" fill="#282828"></path></svg> 